<?xml version="1.0" encoding="utf-8"?>
<!-- Generator: Adobe Illustrator 27.5.0, SVG Export Plug-In . SVG Version: 6.00 Build 0)  -->
<svg version="1.1" xmlns="http://www.w3.org/2000/svg" xmlns:xlink="http://www.w3.org/1999/xlink" x="0px" y="0px"
	 viewBox="0 0 500 500" style="enable-background:new 0 0 500 500;" xml:space="preserve">
<g id="Shadow">
	<g>
		<ellipse style="fill:#C6FF00;" cx="236.168" cy="403.807" rx="141.297" ry="7.086"/>
		<ellipse style="opacity:0.7;fill:#FFFFFF;" cx="236.168" cy="403.807" rx="141.297" ry="7.086"/>
	</g>
	<g>
		<ellipse style="fill:#C6FF00;" cx="402.473" cy="413.81" rx="27.509" ry="6.252"/>
		<ellipse style="opacity:0.7;fill:#FFFFFF;" cx="402.473" cy="413.81" rx="27.509" ry="6.252"/>
	</g>
</g>
<g id="Plants">
	<g>
		<g>
			<g>
				<path style="fill:#C6FF00;" d="M150.824,383.388c-1.26-1.941-3.024-4.743-4.985-8.197c-0.568-0.995-1.153-2.059-1.743-3.158
					c0.437-0.273,3.923-2.484,4.988-4.099c0.967-1.467,1.792-3.603,1.172-5.356c-0.607-1.716-2.509-2.725-4.225-1.915
					c-2.382,1.125-3.165,5.81-2.861,8.143c0.02,0.149,0.448,1.888,0.686,2.771c-0.354-0.666-0.709-1.325-1.066-2.025
					c-0.522-1.001-1.041-2.077-1.55-3.117c-0.244-0.549-0.491-1.103-0.74-1.662c-0.263-0.56-0.445-1.125-0.676-1.695
					c-0.318-0.842-0.605-1.727-0.892-2.609c1.052-0.47,4.115-1.903,5.256-3.164c1.178-1.303,2.317-3.29,1.97-5.117
					c-0.341-1.789-2.067-3.074-3.886-2.533c-2.525,0.751-4.009,5.264-4.061,7.615c-0.002,0.076,0.039,0.574,0.092,1.165
					c-0.255-0.87-0.512-1.737-0.74-2.627c-0.649-2.525-1.232-5.117-1.827-7.712c-0.124-0.541-0.256-1.079-0.382-1.619
					c0.887-0.391,4.219-1.914,5.415-3.236c1.178-1.303,2.318-3.29,1.97-5.117c-0.341-1.789-2.067-3.074-3.886-2.533
					c-2.524,0.751-4.009,5.264-4.062,7.615c-0.002,0.084,0.048,0.679,0.109,1.343c-0.343-1.405-0.703-2.802-1.103-4.176
					c-0.697-2.405-1.513-4.736-2.483-6.931c0.314-0.135,4.257-1.841,5.586-3.311c1.178-1.303,2.318-3.29,1.97-5.117
					c-0.341-1.789-2.067-3.074-3.886-2.533c-2.525,0.751-4.009,5.264-4.061,7.615c-0.004,0.167,0.191,2.317,0.287,3.082
					c-0.012-0.026-0.02-0.054-0.032-0.08c-1.039-2.295-2.315-4.358-3.619-6.255c-1.299-1.895-2.683-3.569-3.996-5.076
					c-1.31-1.511-2.602-2.813-3.754-3.955c-0.629-0.613-1.215-1.164-1.768-1.67c0.011-0.001,0.056-0.005,0.056-0.005
					c0.048-0.005-1.23-2.938-1.332-3.114c-1.18-2.035-4.655-5.273-7.229-4.714c-1.854,0.402-2.747,2.361-2.184,4.093
					c0.576,1.768,2.532,2.96,4.192,3.533c1.701,0.588,5.419,0.304,6.341,0.222c0.563,0.538,1.159,1.12,1.804,1.777
					c1.125,1.165,2.384,2.49,3.656,4.023c0.34,0.408,0.689,0.86,1.035,1.292c-0.735-0.607-1.754-1.426-1.862-1.495
					c-1.985-1.262-6.561-2.535-8.588-0.853c-1.46,1.212-1.35,3.362-0.052,4.638c1.326,1.304,3.611,1.46,5.349,1.204
					c1.813-0.267,5.053-2.292,5.757-2.742c0.752,0.969,1.502,1.982,2.222,3.084c1.243,1.894,2.469,3.977,3.439,6.252
					c0.054,0.126,0.094,0.264,0.147,0.391c-0.311-0.363-2.161-2.231-2.305-2.347c-1.834-1.473-6.243-3.24-8.443-1.79
					c-1.585,1.044-1.711,3.193-0.561,4.605c1.174,1.442,3.428,1.848,5.184,1.784c2.023-0.074,6.009-2.085,6.159-2.161
					c0.882,2.143,1.624,4.41,2.249,6.755c0.455,1.699,0.846,3.439,1.222,5.188c-0.416-0.463-2.136-2.198-2.274-2.31
					c-1.834-1.472-6.243-3.24-8.443-1.79c-1.585,1.044-1.711,3.193-0.561,4.605c1.174,1.441,3.429,1.848,5.184,1.784
					c1.975-0.072,5.803-1.982,6.125-2.144c0.17,0.794,0.344,1.587,0.508,2.385c0.538,2.604,1.065,5.216,1.665,7.778
					c0.208,0.888,0.445,1.755,0.679,2.625c-0.645-0.674-1.842-1.879-1.956-1.971c-1.834-1.473-6.243-3.24-8.443-1.791
					c-1.585,1.044-1.711,3.193-0.561,4.605c1.174,1.441,3.429,1.848,5.184,1.784c1.764-0.064,5.017-1.6,5.927-2.046
					c0.4,1.444,0.828,2.868,1.317,4.249c0.224,0.591,0.414,1.209,0.661,1.764c0.237,0.565,0.471,1.124,0.703,1.678
					c0.521,1.129,1.001,2.179,1.512,3.217c0.255,0.527,0.507,1.017,0.761,1.526c-0.551-0.781-1.444-2.004-1.538-2.107
					c-1.59-1.733-5.681-4.148-8.074-3.049c-1.725,0.792-2.176,2.897-1.253,4.466c0.943,1.603,3.109,2.346,4.854,2.549
					c1.924,0.224,5.868-1.026,6.349-1.182c0.628,1.241,1.252,2.443,1.856,3.557c1.904,3.53,3.623,6.398,4.855,8.389
					c1.231,1.988,1.989,3.109,1.989,3.109l0.007,0.01c0.003,0.004,0.006,0.009,0.009,0.013c0.295,0.417,0.873,0.515,1.29,0.22
					c0.417-0.295,0.515-0.873,0.22-1.29C152.843,386.399,152.087,385.332,150.824,383.388z"/>
				<path style="fill:#C6FF00;" d="M125.033,323.502c0.003-0.002,3.633-2.868,4.563-4.708c0.792-1.568,1.367-3.785,0.548-5.455
					c-0.801-1.635-2.806-2.419-4.417-1.417c-2.237,1.391-2.476,6.135-1.907,8.418C123.87,320.537,124.995,323.532,125.033,323.502z"
					/>
			</g>
			<g>
				<path style="fill:#C6FF00;" d="M148.75,385.094c-2.121-0.924-5.139-2.288-8.68-4.087c-1.022-0.517-2.097-1.081-3.196-1.672
					c0.214-0.469,1.902-4.236,1.9-6.17c-0.002-1.757-0.493-3.994-1.977-5.114c-1.454-1.096-3.596-0.889-4.58,0.734
					c-1.366,2.252,0.565,6.592,2.105,8.37c0.099,0.114,1.415,1.328,2.101,1.933c-0.663-0.36-1.322-0.715-2.006-1.1
					c-0.988-0.547-2.014-1.158-3.012-1.744c-0.506-0.323-1.018-0.649-1.534-0.978c-0.528-0.322-0.992-0.692-1.499-1.041
					c-0.73-0.526-1.457-1.106-2.184-1.684c0.618-0.972,2.382-3.857,2.638-5.539c0.264-1.737,0.118-4.023-1.18-5.354
					c-1.271-1.304-3.42-1.424-4.639,0.031c-1.691,2.019-0.44,6.602,0.813,8.592c0.041,0.065,0.349,0.458,0.72,0.921
					c-0.692-0.585-1.386-1.167-2.067-1.783c-1.934-1.747-3.85-3.588-5.778-5.424c-0.401-0.383-0.809-0.759-1.212-1.14
					c0.524-0.816,2.463-3.924,2.731-5.686c0.264-1.737,0.118-4.023-1.18-5.354c-1.271-1.304-3.42-1.424-4.639,0.031
					c-1.691,2.019-0.44,6.602,0.813,8.592c0.045,0.071,0.414,0.54,0.832,1.06c-1.061-0.982-2.132-1.949-3.224-2.875
					c-1.908-1.621-3.875-3.115-5.895-4.411c0.188-0.286,2.535-3.884,2.832-5.843c0.264-1.737,0.118-4.023-1.18-5.354
					c-1.271-1.304-3.42-1.424-4.639,0.031c-1.691,2.02-0.439,6.602,0.814,8.592c0.089,0.141,1.438,1.827,1.94,2.413
					c-0.024-0.015-0.047-0.034-0.071-0.049c-2.133-1.341-4.335-2.358-6.47-3.221c-2.129-0.864-4.207-1.497-6.133-2.029
					c-1.926-0.538-3.722-0.911-5.313-1.228c-0.863-0.165-1.656-0.3-2.396-0.418c0.008-0.007,0.044-0.035,0.044-0.035
					c0.037-0.031-2.647-1.772-2.829-1.862c-2.107-1.046-6.792-1.83-8.631,0.056c-1.325,1.359-0.989,3.485,0.436,4.618
					c1.455,1.157,3.745,1.072,5.446,0.635c1.743-0.449,4.688-2.736,5.411-3.313c0.767,0.138,1.585,0.294,2.485,0.486
					c1.581,0.351,3.362,0.762,5.268,1.339c0.508,0.153,1.049,0.337,1.576,0.507c-0.948-0.101-2.25-0.222-2.378-0.22
					c-2.352,0.042-6.871,1.506-7.633,4.027c-0.55,1.816,0.728,3.549,2.515,3.898c1.825,0.356,3.817-0.774,5.125-1.947
					c1.365-1.223,2.95-4.699,3.289-5.463c1.162,0.393,2.346,0.824,3.555,1.346c2.081,0.894,4.253,1.955,6.318,3.317
					c0.115,0.076,0.225,0.168,0.339,0.245c-0.46-0.131-3.033-0.669-3.217-0.686c-2.342-0.217-6.995,0.742-8.029,3.164
					c-0.746,1.745,0.334,3.607,2.072,4.15c1.775,0.555,3.879-0.35,5.308-1.372c1.647-1.177,3.862-5.054,3.945-5.2
					c1.917,1.301,3.787,2.782,5.602,4.394c1.317,1.166,2.603,2.402,3.881,3.653c-0.602-0.157-2.994-0.655-3.171-0.672
					c-2.342-0.216-6.995,0.742-8.03,3.164c-0.746,1.745,0.334,3.607,2.072,4.15c1.775,0.554,3.879-0.35,5.308-1.372
					c1.608-1.15,3.747-4.854,3.926-5.167c0.58,0.569,1.162,1.134,1.739,1.709c1.885,1.875,3.766,3.763,5.68,5.569
					c0.663,0.626,1.339,1.218,2.014,1.815c-0.91-0.207-2.573-0.551-2.719-0.565c-2.342-0.216-6.995,0.742-8.03,3.164
					c-0.746,1.745,0.334,3.607,2.072,4.15c1.775,0.554,3.879-0.35,5.308-1.372c1.436-1.026,3.301-4.103,3.814-4.976
					c1.13,0.984,2.273,1.935,3.443,2.818c0.513,0.37,1.012,0.78,1.524,1.107c0.509,0.341,1.013,0.678,1.512,1.012
					c1.057,0.654,2.037,1.266,3.036,1.849c0.503,0.299,0.984,0.569,1.477,0.852c-0.891-0.347-2.31-0.875-2.445-0.908
					c-2.282-0.569-7.026-0.326-8.416,1.911c-1.002,1.612-0.216,3.617,1.419,4.416c1.671,0.817,3.888,0.242,5.455-0.552
					c1.728-0.875,4.328-4.093,4.644-4.488c1.209,0.688,2.392,1.348,3.51,1.943c3.535,1.894,6.551,3.337,8.678,4.319
					c2.123,0.979,3.374,1.496,3.374,1.496l0.011,0.004c0.005,0.002,0.01,0.004,0.015,0.006c0.476,0.185,1.012-0.052,1.197-0.528
					c0.185-0.476-0.052-1.012-0.528-1.197C152.095,386.491,150.876,386.018,148.75,385.094z"/>
				<path style="fill:#C6FF00;" d="M94.202,349.373c0.001-0.003,1.448-4.396,1.209-6.444c-0.204-1.745-0.949-3.911-2.552-4.853
					c-1.57-0.922-3.675-0.47-4.466,1.255c-1.098,2.394,1.319,6.484,3.053,8.073C91.596,347.541,94.187,349.419,94.202,349.373z"/>
			</g>
		</g>
		<g style="opacity:0.4;">
			<g>
				<path style="fill:#FFFFFF;" d="M150.824,383.388c-1.26-1.941-3.024-4.743-4.985-8.197c-0.568-0.995-1.153-2.059-1.743-3.158
					c0.437-0.273,3.923-2.484,4.988-4.099c0.967-1.467,1.792-3.603,1.172-5.356c-0.607-1.716-2.509-2.725-4.225-1.915
					c-2.382,1.125-3.165,5.81-2.861,8.143c0.02,0.149,0.448,1.888,0.686,2.771c-0.354-0.666-0.709-1.325-1.066-2.025
					c-0.522-1.001-1.041-2.077-1.55-3.117c-0.244-0.549-0.491-1.103-0.74-1.662c-0.263-0.56-0.445-1.125-0.676-1.695
					c-0.318-0.842-0.605-1.727-0.892-2.609c1.052-0.47,4.115-1.903,5.256-3.164c1.178-1.303,2.317-3.29,1.97-5.117
					c-0.341-1.789-2.067-3.074-3.886-2.533c-2.525,0.751-4.009,5.264-4.061,7.615c-0.002,0.076,0.039,0.574,0.092,1.165
					c-0.255-0.87-0.512-1.737-0.74-2.627c-0.649-2.525-1.232-5.117-1.827-7.712c-0.124-0.541-0.256-1.079-0.382-1.619
					c0.887-0.391,4.219-1.914,5.415-3.236c1.178-1.303,2.318-3.29,1.97-5.117c-0.341-1.789-2.067-3.074-3.886-2.533
					c-2.524,0.751-4.009,5.264-4.062,7.615c-0.002,0.084,0.048,0.679,0.109,1.343c-0.343-1.405-0.703-2.802-1.103-4.176
					c-0.697-2.405-1.513-4.736-2.483-6.931c0.314-0.135,4.257-1.841,5.586-3.311c1.178-1.303,2.318-3.29,1.97-5.117
					c-0.341-1.789-2.067-3.074-3.886-2.533c-2.525,0.751-4.009,5.264-4.061,7.615c-0.004,0.167,0.191,2.317,0.287,3.082
					c-0.012-0.026-0.02-0.054-0.032-0.08c-1.039-2.295-2.315-4.358-3.619-6.255c-1.299-1.895-2.683-3.569-3.996-5.076
					c-1.31-1.511-2.602-2.813-3.754-3.955c-0.629-0.613-1.215-1.164-1.768-1.67c0.011-0.001,0.056-0.005,0.056-0.005
					c0.048-0.005-1.23-2.938-1.332-3.114c-1.18-2.035-4.655-5.273-7.229-4.714c-1.854,0.402-2.747,2.361-2.184,4.093
					c0.576,1.768,2.532,2.96,4.192,3.533c1.701,0.588,5.419,0.304,6.341,0.222c0.563,0.538,1.159,1.12,1.804,1.777
					c1.125,1.165,2.384,2.49,3.656,4.023c0.34,0.408,0.689,0.86,1.035,1.292c-0.735-0.607-1.754-1.426-1.862-1.495
					c-1.985-1.262-6.561-2.535-8.588-0.853c-1.46,1.212-1.35,3.362-0.052,4.638c1.326,1.304,3.611,1.46,5.349,1.204
					c1.813-0.267,5.053-2.292,5.757-2.742c0.752,0.969,1.502,1.982,2.222,3.084c1.243,1.894,2.469,3.977,3.439,6.252
					c0.054,0.126,0.094,0.264,0.147,0.391c-0.311-0.363-2.161-2.231-2.305-2.347c-1.834-1.473-6.243-3.24-8.443-1.79
					c-1.585,1.044-1.711,3.193-0.561,4.605c1.174,1.442,3.428,1.848,5.184,1.784c2.023-0.074,6.009-2.085,6.159-2.161
					c0.882,2.143,1.624,4.41,2.249,6.755c0.455,1.699,0.846,3.439,1.222,5.188c-0.416-0.463-2.136-2.198-2.274-2.31
					c-1.834-1.472-6.243-3.24-8.443-1.79c-1.585,1.044-1.711,3.193-0.561,4.605c1.174,1.441,3.429,1.848,5.184,1.784
					c1.975-0.072,5.803-1.982,6.125-2.144c0.17,0.794,0.344,1.587,0.508,2.385c0.538,2.604,1.065,5.216,1.665,7.778
					c0.208,0.888,0.445,1.755,0.679,2.625c-0.645-0.674-1.842-1.879-1.956-1.971c-1.834-1.473-6.243-3.24-8.443-1.791
					c-1.585,1.044-1.711,3.193-0.561,4.605c1.174,1.441,3.429,1.848,5.184,1.784c1.764-0.064,5.017-1.6,5.927-2.046
					c0.4,1.444,0.828,2.868,1.317,4.249c0.224,0.591,0.414,1.209,0.661,1.764c0.237,0.565,0.471,1.124,0.703,1.678
					c0.521,1.129,1.001,2.179,1.512,3.217c0.255,0.527,0.507,1.017,0.761,1.526c-0.551-0.781-1.444-2.004-1.538-2.107
					c-1.59-1.733-5.681-4.148-8.074-3.049c-1.725,0.792-2.176,2.897-1.253,4.466c0.943,1.603,3.109,2.346,4.854,2.549
					c1.924,0.224,5.868-1.026,6.349-1.182c0.628,1.241,1.252,2.443,1.856,3.557c1.904,3.53,3.623,6.398,4.855,8.389
					c1.231,1.988,1.989,3.109,1.989,3.109l0.007,0.01c0.003,0.004,0.006,0.009,0.009,0.013c0.295,0.417,0.873,0.515,1.29,0.22
					c0.417-0.295,0.515-0.873,0.22-1.29C152.843,386.399,152.087,385.332,150.824,383.388z"/>
				<path style="fill:#FFFFFF;" d="M125.033,323.502c0.003-0.002,3.633-2.868,4.563-4.708c0.792-1.568,1.367-3.785,0.548-5.455
					c-0.801-1.635-2.806-2.419-4.417-1.417c-2.237,1.391-2.476,6.135-1.907,8.418C123.87,320.537,124.995,323.532,125.033,323.502z"
					/>
			</g>
			<g>
				<path style="fill:#FFFFFF;" d="M148.75,385.094c-2.121-0.924-5.139-2.288-8.68-4.087c-1.022-0.517-2.097-1.081-3.196-1.672
					c0.214-0.469,1.902-4.236,1.9-6.17c-0.002-1.757-0.493-3.994-1.977-5.114c-1.454-1.096-3.596-0.889-4.58,0.734
					c-1.366,2.252,0.565,6.592,2.105,8.37c0.099,0.114,1.415,1.328,2.101,1.933c-0.663-0.36-1.322-0.715-2.006-1.1
					c-0.988-0.547-2.014-1.158-3.012-1.744c-0.506-0.323-1.018-0.649-1.534-0.978c-0.528-0.322-0.992-0.692-1.499-1.041
					c-0.73-0.526-1.457-1.106-2.184-1.684c0.618-0.972,2.382-3.857,2.638-5.539c0.264-1.737,0.118-4.023-1.18-5.354
					c-1.271-1.304-3.42-1.424-4.639,0.031c-1.691,2.019-0.44,6.602,0.813,8.592c0.041,0.065,0.349,0.458,0.72,0.921
					c-0.692-0.585-1.386-1.167-2.067-1.783c-1.934-1.747-3.85-3.588-5.778-5.424c-0.401-0.383-0.809-0.759-1.212-1.14
					c0.524-0.816,2.463-3.924,2.731-5.686c0.264-1.737,0.118-4.023-1.18-5.354c-1.271-1.304-3.42-1.424-4.639,0.031
					c-1.691,2.019-0.44,6.602,0.813,8.592c0.045,0.071,0.414,0.54,0.832,1.06c-1.061-0.982-2.132-1.949-3.224-2.875
					c-1.908-1.621-3.875-3.115-5.895-4.411c0.188-0.286,2.535-3.884,2.832-5.843c0.264-1.737,0.118-4.023-1.18-5.354
					c-1.271-1.304-3.42-1.424-4.639,0.031c-1.691,2.02-0.439,6.602,0.814,8.592c0.089,0.141,1.438,1.827,1.94,2.413
					c-0.024-0.015-0.047-0.034-0.071-0.049c-2.133-1.341-4.335-2.358-6.47-3.221c-2.129-0.864-4.207-1.497-6.133-2.029
					c-1.926-0.538-3.722-0.911-5.313-1.228c-0.863-0.165-1.656-0.3-2.396-0.418c0.008-0.007,0.044-0.035,0.044-0.035
					c0.037-0.031-2.647-1.772-2.829-1.862c-2.107-1.046-6.792-1.83-8.631,0.056c-1.325,1.359-0.989,3.485,0.436,4.618
					c1.455,1.157,3.745,1.072,5.446,0.635c1.743-0.449,4.688-2.736,5.411-3.313c0.767,0.138,1.585,0.294,2.485,0.486
					c1.581,0.351,3.362,0.762,5.268,1.339c0.508,0.153,1.049,0.337,1.576,0.507c-0.948-0.101-2.25-0.222-2.378-0.22
					c-2.352,0.042-6.871,1.506-7.633,4.027c-0.55,1.816,0.728,3.549,2.515,3.898c1.825,0.356,3.817-0.774,5.125-1.947
					c1.365-1.223,2.95-4.699,3.289-5.463c1.162,0.393,2.346,0.824,3.555,1.346c2.081,0.894,4.253,1.955,6.318,3.317
					c0.115,0.076,0.225,0.168,0.339,0.245c-0.46-0.131-3.033-0.669-3.217-0.686c-2.342-0.217-6.995,0.742-8.029,3.164
					c-0.746,1.745,0.334,3.607,2.072,4.15c1.775,0.555,3.879-0.35,5.308-1.372c1.647-1.177,3.862-5.054,3.945-5.2
					c1.917,1.301,3.787,2.782,5.602,4.394c1.317,1.166,2.603,2.402,3.881,3.653c-0.602-0.157-2.994-0.655-3.171-0.672
					c-2.342-0.216-6.995,0.742-8.03,3.164c-0.746,1.745,0.334,3.607,2.072,4.15c1.775,0.554,3.879-0.35,5.308-1.372
					c1.608-1.15,3.747-4.854,3.926-5.167c0.58,0.569,1.162,1.134,1.739,1.709c1.885,1.875,3.766,3.763,5.68,5.569
					c0.663,0.626,1.339,1.218,2.014,1.815c-0.91-0.207-2.573-0.551-2.719-0.565c-2.342-0.216-6.995,0.742-8.03,3.164
					c-0.746,1.745,0.334,3.607,2.072,4.15c1.775,0.554,3.879-0.35,5.308-1.372c1.436-1.026,3.301-4.103,3.814-4.976
					c1.13,0.984,2.273,1.935,3.443,2.818c0.513,0.37,1.012,0.78,1.524,1.107c0.509,0.341,1.013,0.678,1.512,1.012
					c1.057,0.654,2.037,1.266,3.036,1.849c0.503,0.299,0.984,0.569,1.477,0.852c-0.891-0.347-2.31-0.875-2.445-0.908
					c-2.282-0.569-7.026-0.326-8.416,1.911c-1.002,1.612-0.216,3.617,1.419,4.416c1.671,0.817,3.888,0.242,5.455-0.552
					c1.728-0.875,4.328-4.093,4.644-4.488c1.209,0.688,2.392,1.348,3.51,1.943c3.535,1.894,6.551,3.337,8.678,4.319
					c2.123,0.979,3.374,1.496,3.374,1.496l0.011,0.004c0.005,0.002,0.01,0.004,0.015,0.006c0.476,0.185,1.012-0.052,1.197-0.528
					c0.185-0.476-0.052-1.012-0.528-1.197C152.095,386.491,150.876,386.018,148.75,385.094z"/>
				<path style="fill:#FFFFFF;" d="M94.202,349.373c0.001-0.003,1.448-4.396,1.209-6.444c-0.204-1.745-0.949-3.911-2.552-4.853
					c-1.57-0.922-3.675-0.47-4.466,1.255c-1.098,2.394,1.319,6.484,3.053,8.073C91.596,347.541,94.187,349.419,94.202,349.373z"/>
			</g>
		</g>
	</g>
	<g>
		<g>
			<g>
				<path style="fill:#C6FF00;" d="M302.306,340.149c0.112,25.913,20.73,46.832,20.73,46.832s20.437-21.095,20.325-47.009
					c-0.112-25.913-20.73-46.832-20.73-46.832S302.194,314.235,302.306,340.149z"/>
				
					<line style="fill:#C6FF00;stroke:#FFFFFF;stroke-width:0.8984;stroke-miterlimit:10;" x1="323.036" y1="386.981" x2="322.632" y2="293.14"/>
				
					<line style="fill:#C6FF00;stroke:#FFFFFF;stroke-width:0.8984;stroke-miterlimit:10;" x1="322.776" y1="326.495" x2="311.239" y2="316.511"/>
				
					<line style="fill:#C6FF00;stroke:#FFFFFF;stroke-width:0.8984;stroke-miterlimit:10;" x1="323.025" y1="342.001" x2="337.166" y2="321.325"/>
				
					<line style="fill:#C6FF00;stroke:#FFFFFF;stroke-width:0.8984;stroke-miterlimit:10;" x1="322.881" y1="350.941" x2="305.85" y2="335.873"/>
				
					<line style="fill:#C6FF00;stroke:#FFFFFF;stroke-width:0.8984;stroke-miterlimit:10;" x1="323.115" y1="362.981" x2="339.835" y2="347.949"/>
				
					<line style="fill:#C6FF00;stroke:#FFFFFF;stroke-width:0.8984;stroke-miterlimit:10;" x1="323.16" y1="373.38" x2="309.98" y2="363.038"/>
			</g>
			<g>
				<path style="fill:#C6FF00;" d="M288.257,380.175c10.017,11.198,27.009,12.341,27.009,12.341s0.75-17.014-9.267-28.212
					c-10.018-11.199-27.009-12.341-27.009-12.341S278.24,368.977,288.257,380.175z"/>
				
					<line style="fill:#C6FF00;stroke:#FFFFFF;stroke-width:0.8984;stroke-miterlimit:10;" x1="315.267" y1="392.516" x2="278.99" y2="351.963"/>
				
					<line style="fill:#C6FF00;stroke:#FFFFFF;stroke-width:0.8984;stroke-miterlimit:10;" x1="291.885" y1="366.378" x2="283.039" y2="366.484"/>
				
					<line style="fill:#C6FF00;stroke:#FFFFFF;stroke-width:0.8984;stroke-miterlimit:10;" x1="297.958" y1="373.009" x2="296.138" y2="358.599"/>
				
					<line style="fill:#C6FF00;stroke:#FFFFFF;stroke-width:0.8984;stroke-miterlimit:10;" x1="301.335" y1="376.942" x2="288.15" y2="376.957"/>
				
					<line style="fill:#C6FF00;stroke:#FFFFFF;stroke-width:0.8984;stroke-miterlimit:10;" x1="306.069" y1="382.075" x2="307.539" y2="369.122"/>
				
					<line style="fill:#C6FF00;stroke:#FFFFFF;stroke-width:0.8984;stroke-miterlimit:10;" x1="310.088" y1="386.569" x2="300.392" y2="387.153"/>
			</g>
			<g>
				<path style="fill:#C6FF00;" d="M340.493,363.762c-10.42,10.826-10.291,27.855-10.291,27.855s17.022-0.522,27.442-11.347
					c10.42-10.825,10.291-27.855,10.291-27.855S350.912,352.937,340.493,363.762z"/>
				
					<line style="fill:#C6FF00;stroke:#FFFFFF;stroke-width:0.8984;stroke-miterlimit:10;" x1="330.202" y1="391.617" x2="367.935" y2="352.415"/>
				
					<line style="fill:#C6FF00;stroke:#FFFFFF;stroke-width:0.8984;stroke-miterlimit:10;" x1="354.523" y1="366.349" x2="353.756" y2="357.536"/>
				
					<line style="fill:#C6FF00;stroke:#FFFFFF;stroke-width:0.8984;stroke-miterlimit:10;" x1="348.364" y1="372.901" x2="362.597" y2="370.011"/>
				
					<line style="fill:#C6FF00;stroke:#FFFFFF;stroke-width:0.8984;stroke-miterlimit:10;" x1="344.693" y1="376.562" x2="343.694" y2="363.414"/>
				
					<line style="fill:#C6FF00;stroke:#FFFFFF;stroke-width:0.8984;stroke-miterlimit:10;" x1="339.928" y1="381.665" x2="352.954" y2="382.164"/>
				
					<line style="fill:#C6FF00;stroke:#FFFFFF;stroke-width:0.8984;stroke-miterlimit:10;" x1="335.747" y1="386.009" x2="334.441" y2="376.383"/>
			</g>
		</g>
		<g style="opacity:0.4;">
			<g>
				<path style="fill:#FFFFFF;" d="M302.306,340.149c0.112,25.913,20.73,46.832,20.73,46.832s20.437-21.095,20.325-47.009
					c-0.112-25.913-20.73-46.832-20.73-46.832S302.194,314.235,302.306,340.149z"/>
				<line style="fill:#FFFFFF;" x1="323.036" y1="386.981" x2="322.632" y2="293.14"/>
				<line style="fill:#FFFFFF;" x1="322.776" y1="326.495" x2="311.239" y2="316.511"/>
				<line style="fill:#FFFFFF;" x1="323.025" y1="342.001" x2="337.166" y2="321.325"/>
				<line style="fill:#FFFFFF;" x1="322.881" y1="350.941" x2="305.85" y2="335.873"/>
				<line style="fill:#FFFFFF;" x1="323.115" y1="362.981" x2="339.835" y2="347.949"/>
				<line style="fill:#FFFFFF;" x1="323.16" y1="373.38" x2="309.98" y2="363.038"/>
			</g>
			<g>
				<path style="fill:#FFFFFF;" d="M288.257,380.175c10.017,11.198,27.009,12.341,27.009,12.341s0.75-17.014-9.267-28.212
					c-10.018-11.199-27.009-12.341-27.009-12.341S278.24,368.977,288.257,380.175z"/>
				<line style="fill:#FFFFFF;" x1="315.267" y1="392.516" x2="278.99" y2="351.963"/>
				<line style="fill:#FFFFFF;" x1="291.885" y1="366.378" x2="283.039" y2="366.484"/>
				<line style="fill:#FFFFFF;" x1="297.958" y1="373.009" x2="296.138" y2="358.599"/>
				<line style="fill:#FFFFFF;" x1="301.335" y1="376.942" x2="288.15" y2="376.957"/>
				<line style="fill:#FFFFFF;" x1="306.069" y1="382.075" x2="307.539" y2="369.122"/>
				<line style="fill:#FFFFFF;" x1="310.088" y1="386.569" x2="300.392" y2="387.153"/>
			</g>
			<g>
				<path style="fill:#FFFFFF;" d="M340.493,363.762c-10.42,10.826-10.291,27.855-10.291,27.855s17.022-0.522,27.442-11.347
					c10.42-10.825,10.291-27.855,10.291-27.855S350.912,352.937,340.493,363.762z"/>
				<line style="fill:#FFFFFF;" x1="330.202" y1="391.617" x2="367.935" y2="352.415"/>
				<line style="fill:#FFFFFF;" x1="354.523" y1="366.349" x2="353.756" y2="357.536"/>
				<line style="fill:#FFFFFF;" x1="348.364" y1="372.901" x2="362.597" y2="370.011"/>
				<line style="fill:#FFFFFF;" x1="344.693" y1="376.562" x2="343.694" y2="363.414"/>
				<line style="fill:#FFFFFF;" x1="339.928" y1="381.665" x2="352.954" y2="382.164"/>
				<line style="fill:#FFFFFF;" x1="335.747" y1="386.009" x2="334.441" y2="376.383"/>
			</g>
		</g>
	</g>
	<g>
		<g>
			<g>
				<path style="fill:#C6FF00;" d="M275.847,115.055c0.093,21.65,17.319,39.126,17.319,39.126s17.074-17.624,16.981-39.274
					c-0.093-21.65-17.319-39.127-17.319-39.127S275.753,93.405,275.847,115.055z"/>
				
					<line style="fill:#C6FF00;stroke:#FFFFFF;stroke-width:0.8984;stroke-miterlimit:10;" x1="293.166" y1="154.181" x2="292.828" y2="75.781"/>
				
					<line style="fill:#C6FF00;stroke:#FFFFFF;stroke-width:0.8984;stroke-miterlimit:10;" x1="292.948" y1="103.648" x2="283.31" y2="95.307"/>
				
					<line style="fill:#C6FF00;stroke:#FFFFFF;stroke-width:0.8984;stroke-miterlimit:10;" x1="293.157" y1="116.603" x2="304.971" y2="99.329"/>
				
					<line style="fill:#C6FF00;stroke:#FFFFFF;stroke-width:0.8984;stroke-miterlimit:10;" x1="293.036" y1="124.072" x2="278.807" y2="111.482"/>
				
					<line style="fill:#C6FF00;stroke:#FFFFFF;stroke-width:0.8984;stroke-miterlimit:10;" x1="293.232" y1="134.131" x2="307.201" y2="121.572"/>
				
					<line style="fill:#C6FF00;stroke:#FFFFFF;stroke-width:0.8984;stroke-miterlimit:10;" x1="293.27" y1="142.818" x2="282.258" y2="134.178"/>
			</g>
			<g>
				<path style="fill:#C6FF00;" d="M264.109,148.496c8.369,9.356,22.565,10.311,22.565,10.311s0.627-14.214-7.742-23.57
					c-8.369-9.356-22.565-10.311-22.565-10.311S255.74,139.14,264.109,148.496z"/>
				
					<line style="fill:#C6FF00;stroke:#FFFFFF;stroke-width:0.8984;stroke-miterlimit:10;" x1="286.675" y1="158.807" x2="256.367" y2="124.925"/>
				
					<line style="fill:#C6FF00;stroke:#FFFFFF;stroke-width:0.8984;stroke-miterlimit:10;" x1="267.14" y1="136.968" x2="259.75" y2="137.058"/>
				
					<line style="fill:#C6FF00;stroke:#FFFFFF;stroke-width:0.8984;stroke-miterlimit:10;" x1="272.214" y1="142.508" x2="270.694" y2="130.469"/>
				
					<line style="fill:#C6FF00;stroke:#FFFFFF;stroke-width:0.8984;stroke-miterlimit:10;" x1="275.035" y1="145.794" x2="264.02" y2="145.807"/>
				
					<line style="fill:#C6FF00;stroke:#FFFFFF;stroke-width:0.8984;stroke-miterlimit:10;" x1="278.99" y1="150.083" x2="280.218" y2="139.261"/>
				
					<line style="fill:#C6FF00;stroke:#FFFFFF;stroke-width:0.8984;stroke-miterlimit:10;" x1="282.348" y1="153.837" x2="274.248" y2="154.325"/>
			</g>
			<g>
				<path style="fill:#C6FF00;" d="M307.751,134.783c-8.705,9.044-8.598,23.272-8.598,23.272s14.222-0.436,22.927-9.48
					c8.705-9.044,8.598-23.272,8.598-23.272S316.456,125.739,307.751,134.783z"/>
				
					<line style="fill:#C6FF00;stroke:#FFFFFF;stroke-width:0.8984;stroke-miterlimit:10;" x1="299.153" y1="158.055" x2="330.677" y2="125.303"/>
				
					<line style="fill:#C6FF00;stroke:#FFFFFF;stroke-width:0.8984;stroke-miterlimit:10;" x1="319.472" y1="136.945" x2="318.831" y2="129.582"/>
				
					<line style="fill:#C6FF00;stroke:#FFFFFF;stroke-width:0.8984;stroke-miterlimit:10;" x1="314.326" y1="142.418" x2="326.218" y2="140.004"/>
				
					<line style="fill:#C6FF00;stroke:#FFFFFF;stroke-width:0.8984;stroke-miterlimit:10;" x1="311.26" y1="145.477" x2="310.425" y2="134.492"/>
				
					<line style="fill:#C6FF00;stroke:#FFFFFF;stroke-width:0.8984;stroke-miterlimit:10;" x1="307.279" y1="149.74" x2="318.162" y2="150.158"/>
				
					<line style="fill:#C6FF00;stroke:#FFFFFF;stroke-width:0.8984;stroke-miterlimit:10;" x1="303.785" y1="153.37" x2="302.694" y2="145.328"/>
			</g>
		</g>
		<g style="opacity:0.4;">
			<g>
				<path style="fill:#FFFFFF;" d="M275.847,115.055c0.093,21.65,17.319,39.126,17.319,39.126s17.074-17.624,16.981-39.274
					c-0.093-21.65-17.319-39.127-17.319-39.127S275.753,93.405,275.847,115.055z"/>
				<line style="fill:#FFFFFF;" x1="293.166" y1="154.181" x2="292.828" y2="75.781"/>
				<line style="fill:#FFFFFF;" x1="292.948" y1="103.648" x2="283.31" y2="95.307"/>
				<line style="fill:#FFFFFF;" x1="293.157" y1="116.603" x2="304.971" y2="99.329"/>
				<line style="fill:#FFFFFF;" x1="293.036" y1="124.072" x2="278.807" y2="111.482"/>
				<line style="fill:#FFFFFF;" x1="293.232" y1="134.131" x2="307.201" y2="121.572"/>
				<line style="fill:#FFFFFF;" x1="293.27" y1="142.818" x2="282.258" y2="134.178"/>
			</g>
			<g>
				<path style="fill:#FFFFFF;" d="M264.109,148.496c8.369,9.356,22.565,10.311,22.565,10.311s0.627-14.214-7.742-23.57
					c-8.369-9.356-22.565-10.311-22.565-10.311S255.74,139.14,264.109,148.496z"/>
				<line style="fill:#FFFFFF;" x1="286.675" y1="158.807" x2="256.367" y2="124.925"/>
				<line style="fill:#FFFFFF;" x1="267.14" y1="136.968" x2="259.75" y2="137.058"/>
				<line style="fill:#FFFFFF;" x1="272.214" y1="142.508" x2="270.694" y2="130.469"/>
				<line style="fill:#FFFFFF;" x1="275.035" y1="145.794" x2="264.02" y2="145.807"/>
				<line style="fill:#FFFFFF;" x1="278.99" y1="150.083" x2="280.218" y2="139.261"/>
				<line style="fill:#FFFFFF;" x1="282.348" y1="153.837" x2="274.248" y2="154.325"/>
			</g>
			<g>
				<path style="fill:#FFFFFF;" d="M307.751,134.783c-8.705,9.044-8.598,23.272-8.598,23.272s14.222-0.436,22.927-9.48
					c8.705-9.044,8.598-23.272,8.598-23.272S316.456,125.739,307.751,134.783z"/>
				<line style="fill:#FFFFFF;" x1="299.153" y1="158.055" x2="330.677" y2="125.303"/>
				<line style="fill:#FFFFFF;" x1="319.472" y1="136.945" x2="318.831" y2="129.582"/>
				<line style="fill:#FFFFFF;" x1="314.326" y1="142.418" x2="326.218" y2="140.004"/>
				<line style="fill:#FFFFFF;" x1="311.26" y1="145.477" x2="310.425" y2="134.492"/>
				<line style="fill:#FFFFFF;" x1="307.279" y1="149.74" x2="318.162" y2="150.158"/>
				<line style="fill:#FFFFFF;" x1="303.785" y1="153.37" x2="302.694" y2="145.328"/>
			</g>
		</g>
	</g>
	<g>
		<g>
			<g>
				<path style="fill:#C6FF00;" d="M154.337,358.439c0.073,16.863,13.49,30.475,13.49,30.475s13.299-13.728,13.227-30.59
					c-0.073-16.863-13.49-30.475-13.49-30.475S154.265,341.576,154.337,358.439z"/>
				
					<line style="fill:#C6FF00;stroke:#FFFFFF;stroke-width:0.8984;stroke-miterlimit:10;" x1="167.827" y1="388.914" x2="167.564" y2="327.849"/>
				
					<line style="fill:#C6FF00;stroke:#FFFFFF;stroke-width:0.8984;stroke-miterlimit:10;" x1="167.658" y1="349.554" x2="160.151" y2="343.057"/>
				
					<line style="fill:#C6FF00;stroke:#FFFFFF;stroke-width:0.8984;stroke-miterlimit:10;" x1="167.82" y1="359.645" x2="177.022" y2="346.19"/>
				
					<line style="fill:#C6FF00;stroke:#FFFFFF;stroke-width:0.8984;stroke-miterlimit:10;" x1="167.726" y1="365.462" x2="156.643" y2="355.656"/>
				
					<line style="fill:#C6FF00;stroke:#FFFFFF;stroke-width:0.8984;stroke-miterlimit:10;" x1="167.879" y1="373.297" x2="178.759" y2="363.515"/>
				
					<line style="fill:#C6FF00;stroke:#FFFFFF;stroke-width:0.8984;stroke-miterlimit:10;" x1="167.908" y1="380.064" x2="159.331" y2="373.334"/>
			</g>
			<g>
				<path style="fill:#C6FF00;" d="M145.195,384.486c6.519,7.287,17.576,8.031,17.576,8.031s0.488-11.071-6.031-18.359
					c-6.519-7.287-17.576-8.031-17.576-8.031S138.677,377.198,145.195,384.486z"/>
				
					<line style="fill:#C6FF00;stroke:#FFFFFF;stroke-width:0.8984;stroke-miterlimit:10;" x1="162.771" y1="392.516" x2="139.165" y2="366.127"/>
				
					<line style="fill:#C6FF00;stroke:#FFFFFF;stroke-width:0.8984;stroke-miterlimit:10;" x1="147.556" y1="375.507" x2="141.8" y2="375.576"/>
				
					<line style="fill:#C6FF00;stroke:#FFFFFF;stroke-width:0.8984;stroke-miterlimit:10;" x1="151.508" y1="379.822" x2="150.324" y2="370.445"/>
				
					<line style="fill:#C6FF00;stroke:#FFFFFF;stroke-width:0.8984;stroke-miterlimit:10;" x1="153.705" y1="382.382" x2="145.125" y2="382.391"/>
				
					<line style="fill:#C6FF00;stroke:#FFFFFF;stroke-width:0.8984;stroke-miterlimit:10;" x1="156.786" y1="385.722" x2="157.742" y2="377.293"/>
				
					<line style="fill:#C6FF00;stroke:#FFFFFF;stroke-width:0.8984;stroke-miterlimit:10;" x1="159.402" y1="388.646" x2="153.092" y2="389.026"/>
			</g>
			<g>
				<path style="fill:#C6FF00;" d="M179.187,373.805c-6.78,7.044-6.697,18.126-6.697,18.126s11.077-0.34,17.857-7.384
					c6.78-7.044,6.697-18.126,6.697-18.126S185.967,366.76,179.187,373.805z"/>
				
					<line style="fill:#C6FF00;stroke:#FFFFFF;stroke-width:0.8984;stroke-miterlimit:10;" x1="172.49" y1="391.931" x2="197.044" y2="366.421"/>
				
					<line style="fill:#C6FF00;stroke:#FFFFFF;stroke-width:0.8984;stroke-miterlimit:10;" x1="188.317" y1="375.488" x2="187.818" y2="369.754"/>
				
					<line style="fill:#C6FF00;stroke:#FFFFFF;stroke-width:0.8984;stroke-miterlimit:10;" x1="184.309" y1="379.752" x2="193.571" y2="377.871"/>
				
					<line style="fill:#C6FF00;stroke:#FFFFFF;stroke-width:0.8984;stroke-miterlimit:10;" x1="181.92" y1="382.134" x2="181.27" y2="373.578"/>
				
					<line style="fill:#C6FF00;stroke:#FFFFFF;stroke-width:0.8984;stroke-miterlimit:10;" x1="178.819" y1="385.455" x2="187.296" y2="385.78"/>
				
					<line style="fill:#C6FF00;stroke:#FFFFFF;stroke-width:0.8984;stroke-miterlimit:10;" x1="176.098" y1="388.282" x2="175.249" y2="382.018"/>
			</g>
		</g>
		<g style="opacity:0.4;">
			<g>
				<path style="fill:#FFFFFF;" d="M154.337,358.439c0.073,16.863,13.49,30.475,13.49,30.475s13.299-13.728,13.227-30.59
					c-0.073-16.863-13.49-30.475-13.49-30.475S154.265,341.576,154.337,358.439z"/>
				<line style="fill:#FFFFFF;" x1="167.827" y1="388.914" x2="167.564" y2="327.849"/>
				<line style="fill:#FFFFFF;" x1="167.658" y1="349.554" x2="160.151" y2="343.057"/>
				<line style="fill:#FFFFFF;" x1="167.82" y1="359.645" x2="177.022" y2="346.19"/>
				<line style="fill:#FFFFFF;" x1="167.726" y1="365.462" x2="156.643" y2="355.656"/>
				<line style="fill:#FFFFFF;" x1="167.879" y1="373.297" x2="178.759" y2="363.515"/>
				<line style="fill:#FFFFFF;" x1="167.908" y1="380.064" x2="159.331" y2="373.334"/>
			</g>
			<g>
				<path style="fill:#FFFFFF;" d="M145.195,384.486c6.519,7.287,17.576,8.031,17.576,8.031s0.488-11.071-6.031-18.359
					c-6.519-7.287-17.576-8.031-17.576-8.031S138.677,377.198,145.195,384.486z"/>
				<line style="fill:#FFFFFF;" x1="162.771" y1="392.516" x2="139.165" y2="366.127"/>
				<line style="fill:#FFFFFF;" x1="147.556" y1="375.507" x2="141.8" y2="375.576"/>
				<line style="fill:#FFFFFF;" x1="151.508" y1="379.822" x2="150.324" y2="370.445"/>
				<line style="fill:#FFFFFF;" x1="153.705" y1="382.382" x2="145.125" y2="382.391"/>
				<line style="fill:#FFFFFF;" x1="156.786" y1="385.722" x2="157.742" y2="377.293"/>
				<line style="fill:#FFFFFF;" x1="159.402" y1="388.646" x2="153.092" y2="389.026"/>
			</g>
			<g>
				<path style="fill:#FFFFFF;" d="M179.187,373.805c-6.78,7.044-6.697,18.126-6.697,18.126s11.077-0.34,17.857-7.384
					c6.78-7.044,6.697-18.126,6.697-18.126S185.967,366.76,179.187,373.805z"/>
				<line style="fill:#FFFFFF;" x1="172.49" y1="391.931" x2="197.044" y2="366.421"/>
				<line style="fill:#FFFFFF;" x1="188.317" y1="375.488" x2="187.818" y2="369.754"/>
				<line style="fill:#FFFFFF;" x1="184.309" y1="379.752" x2="193.571" y2="377.871"/>
				<line style="fill:#FFFFFF;" x1="181.92" y1="382.134" x2="181.27" y2="373.578"/>
				<line style="fill:#FFFFFF;" x1="178.819" y1="385.455" x2="187.296" y2="385.78"/>
				<line style="fill:#FFFFFF;" x1="176.098" y1="388.282" x2="175.249" y2="382.018"/>
			</g>
		</g>
	</g>
</g>
<g id="Character_2">
	<g>
		<g>
			<defs>
				<polygon id="XMLID_27_" points="143.854,103.528 132.153,113.748 142.817,147.667 167.405,147.223 172.885,105.602 
					155.408,100.862 				"/>
			</defs>
			<use xlink:href="#XMLID_27_"  style="overflow:visible;fill:#FFFFFF;"/>
			<clipPath id="XMLID_00000172428692158810722860000003753067500948539010_">
				<use xlink:href="#XMLID_27_"  style="overflow:visible;"/>
			</clipPath>
			<path style="opacity:0.5;clip-path:url(#XMLID_00000172428692158810722860000003753067500948539010_);fill:#C6FF00;" d="
				M164.248,106.501c-2.082-0.463-5.319-1.619-5.319-1.619s-13.183-0.231-15.265,8.326l-0.694,3.469l3.469-0.925
				c0,0-3.932,6.013-4.394,6.707c-0.463,0.694-0.925-5.782-1.85-5.088c-0.925,0.694-3.007,9.483-3.007,9.483l1.339,7.167
				l4.291,13.647l24.588-0.444l4.839-36.753C170.941,109.71,166.046,106.9,164.248,106.501z"/>
			
				<use xlink:href="#XMLID_27_"  style="overflow:visible;fill:none;stroke:#263238;stroke-width:0.75;stroke-linecap:round;stroke-linejoin:round;stroke-miterlimit:10;"/>
		</g>
		
			<polygon id="XMLID_21_" style="fill:#263238;stroke:#263238;stroke-width:0.75;stroke-linecap:round;stroke-linejoin:round;stroke-miterlimit:10;" points="
			146.076,110.638 150.075,115.378 149.038,143.816 152.889,149 156.889,141.298 151.26,115.378 154.519,109.897 153.186,105.306 		
			"/>
		
			<path id="XMLID_19_" style="fill:#FFFFFF;stroke:#263238;stroke-width:0.75;stroke-linecap:round;stroke-linejoin:round;stroke-miterlimit:10;" d="
			M142.817,102.491c0,0-1.037,3.11-1.037,6.073c0,2.962,1.333,6.962,1.333,6.962s2.962-3.851,5.036-4.592
			c2.074-0.741,6.073-1.185,7.406-0.592c1.333,0.592,4.592,2.666,4.592,2.666s0.296-4.74-1.481-9.183
			c-1.777-4.444-2.518-6.073-3.703-6.517C153.778,96.863,144.891,96.27,142.817,102.491z"/>
		<g>
			<defs>
				<path id="XMLID_17_" d="M132.153,113.748l-9.183,23.403c0,0,7.11,4.147,7.258,3.703c0.148-0.444,7.348-9.92,7.348-9.92
					L132.153,113.748z"/>
			</defs>
			<use xlink:href="#XMLID_17_"  style="overflow:visible;fill:#FFFFFF;"/>
			<clipPath id="XMLID_00000063624545332504321860000002431908826439103916_">
				<use xlink:href="#XMLID_17_"  style="overflow:visible;"/>
			</clipPath>
			<path style="opacity:0.5;clip-path:url(#XMLID_00000063624545332504321860000002431908826439103916_);fill:#C6FF00;" d="
				M134.181,126.391c0,0-5.935-2.293-4.394-0.925c1.541,1.368,4.394,4.857,4.394,4.857l-5.551,2.775l3.896,4.545
				c2.156-2.902,5.049-6.71,5.049-6.71l-3.868-12.26l-0.22,0.085L134.181,126.391z"/>
			
				<use xlink:href="#XMLID_17_"  style="overflow:visible;fill:none;stroke:#263238;stroke-width:0.75;stroke-linecap:round;stroke-linejoin:round;stroke-miterlimit:10;"/>
		</g>
		<g>
			<defs>
				<polygon id="XMLID_15_" points="172.885,105.602 195.349,123.602 186.597,128.763 171.108,119.821 				"/>
			</defs>
			<use xlink:href="#XMLID_15_"  style="overflow:visible;fill:#FFFFFF;"/>
			<clipPath id="XMLID_00000009591627224839614690000017966857801940023205_">
				<use xlink:href="#XMLID_15_"  style="overflow:visible;"/>
			</clipPath>
			<path style="opacity:0.5;clip-path:url(#XMLID_00000009591627224839614690000017966857801940023205_);fill:#C6FF00;" d="
				M187.839,126.16l-7.632-5.551c0,0,3.469-0.694,4.163-1.619c0.694-0.925-8.095-0.694-8.095-0.694l2.775-3.701l-5.32,1.85v-2.313
				l-1.462-3.601l-1.161,9.29l15.489,8.942l1.344-0.793L187.839,126.16z"/>
			
				<use xlink:href="#XMLID_15_"  style="overflow:visible;fill:none;stroke:#263238;stroke-width:0.75;stroke-linecap:round;stroke-linejoin:round;stroke-miterlimit:10;"/>
		</g>
		
			<path id="XMLID_13_" style="fill:#FFFFFF;stroke:#263238;stroke-width:0.75;stroke-linecap:round;stroke-linejoin:round;stroke-miterlimit:10;" d="
			M142.817,102.491c0,0,1.926,5.184,4.147,7.258c2.222,2.074,4.147,1.629,5.628-0.296c1.481-1.926,3.111-8.295,3.555-8.591
			c0.444-0.296,2.074-1.777,2.074-3.258c0-1.481-1.925-0.741-2.222-0.148c-0.296,0.592-0.296,0.592-0.296,0.592l-1.481-3.11
			c0,0-1.333,3.407-2.518,5.036c-1.185,1.629-1.481,2.814-2.666,1.926c-1.185-0.889-2.074-2.222-2.962-0.741
			S142.817,102.491,142.817,102.491z"/>
		<path style="opacity:0.5;fill:#C6FF00;" d="M156,97.455c-0.296,0.592-0.296,0.592-0.296,0.592l-1.481-3.11
			c0,0-1.333,3.407-2.518,5.036c-1.185,1.629-1.481,2.814-2.666,1.926c-1.185-0.889-2.074-2.222-2.962-0.741
			s-3.259,1.333-3.259,1.333s0.454,1.217,1.171,2.706c3.817,0.2,9.972-0.161,11.419-4.335l0.015,1.744
			c0.331-0.962,0.587-1.651,0.726-1.744c0.444-0.296,2.074-1.777,2.074-3.258C158.222,96.122,156.296,96.863,156,97.455z"/>
		<path style="fill:none;stroke:#263238;stroke-width:0.5;stroke-linecap:round;stroke-linejoin:round;stroke-miterlimit:10;" d="
			M144.509,104.186c0,0,2.074,0.887,2.812,0.325c0,0,0.148,4.123,1.181,3.748l1.312-0.937"/>
		<path style="fill:none;stroke:#263238;stroke-width:0.5;stroke-linecap:round;stroke-linejoin:round;stroke-miterlimit:10;" d="
			M150.376,104.323c0,0,1.092,0.902,2.779-0.597"/>
		<path style="fill:none;stroke:#263238;stroke-width:0.5;stroke-linecap:round;stroke-linejoin:round;stroke-miterlimit:10;" d="
			M149.627,103.574c0,0,0-2.249,3.56-2.061"/>
		<path style="fill:none;stroke:#263238;stroke-width:0.5;stroke-linecap:round;stroke-linejoin:round;stroke-miterlimit:10;" d="
			M147.321,104.51c0,0-0.505-2.061-2.379-2.436"/>
		<path style="fill:none;stroke:#263238;stroke-width:0.5;stroke-linecap:round;stroke-linejoin:round;stroke-miterlimit:10;" d="
			M147.753,109.008c0,0,1.874,0.937,3.373-0.75"/>
		
			<path style="fill:#263238;stroke:#263238;stroke-width:0.75;stroke-linecap:round;stroke-linejoin:round;stroke-miterlimit:10;" d="
			M157.481,97.604c0,0,4.087-4.299,1.845-9.247c-1.469-3.243-1.697-3.116-5.252-6.898c-3.555-3.782-10.862-1.721-13.298,0.902
			c-2.436,2.623-0.749,7.308-1.686,7.87c-0.937,0.562-6.558,2.248-6.371,4.497c0.187,2.248,6.371,3.373,5.621,4.122
			c-0.749,0.749-5.621,0.562-3.373,2.436c2.249,1.874,8.739,2.835,14.071,0.613c5.332-2.222,5.041-5.485,5.041-5.485
			S154.699,100.105,157.481,97.604z"/>
		<path style="fill:none;stroke:#FFFFFF;stroke-width:0.5;stroke-linecap:round;stroke-linejoin:round;stroke-miterlimit:10;" d="
			M144.382,101.489c0,0,3.154,0.557,6.864-2.412c3.711-2.968,1.113-7.05,1.113-7.05"/>
		<path style="fill:none;stroke:#FFFFFF;stroke-width:0.5;stroke-linecap:round;stroke-linejoin:round;stroke-miterlimit:10;" d="
			M154.771,89.059c0,0,2.053,6.478,0.192,8.248"/>
		<path style="fill:none;stroke:#FFFFFF;stroke-width:0.5;stroke-linecap:round;stroke-linejoin:round;stroke-miterlimit:10;" d="
			M138.34,98.85c0,0,6.042,1.341,9.01-1.999"/>
		
			<path style="fill:#FFFFFF;stroke:#263238;stroke-width:0.75;stroke-linecap:round;stroke-linejoin:round;stroke-miterlimit:10;" d="
			M124.739,140.277c0,0-4.5-1-3.75-3.5s0-5.25,5.5-4.75c5.5,0.5,7.75,1.75,7.75,4.25s-0.75,6.75-3.75,5.5
			C127.489,140.527,124.739,140.277,124.739,140.277z"/>
		
			<polyline style="fill:none;stroke:#263238;stroke-width:0.5;stroke-linecap:round;stroke-linejoin:round;stroke-miterlimit:10;" points="
			177.402,115.706 171.108,119.821 182.087,117.267 		"/>
		
			<line style="fill:none;stroke:#263238;stroke-width:0.5;stroke-linecap:round;stroke-linejoin:round;stroke-miterlimit:10;" x1="136.893" y1="129.449" x2="131.913" y2="124.686"/>
		
			<line style="fill:none;stroke:#263238;stroke-width:0.5;stroke-linecap:round;stroke-linejoin:round;stroke-miterlimit:10;" x1="134.647" y1="128.591" x2="131.328" y2="126.834"/>
		
			<polyline style="fill:none;stroke:#263238;stroke-width:0.5;stroke-linecap:round;stroke-linejoin:round;stroke-miterlimit:10;" points="
			166.859,122.539 161.003,122.734 161.003,124.491 166.469,124.491 		"/>
	</g>
	<path style="opacity:0.5;fill:#C6FF00;" d="M123.773,138.418c0,0-2.775-1.388-1.619-2.313c1.156-0.925,4.163-1.619,6.013-1.156
		c1.85,0.463,3.469,1.388,3.469,1.388s-3.007-2.313-1.156-2.313c1.85,0,3.007,2.313,2.313,4.626
		c-0.694,2.313-3.469,1.619-3.469,1.619L123.773,138.418z"/>
	<g>
		<g>
			<g>
				<path style="fill:#FFFFFF;stroke:#263238;stroke-linecap:round;stroke-linejoin:round;stroke-miterlimit:10;" d="
					M257.589,374.085v-32.43h-52.185v32.43c0,5.559-2.196,10.892-6.109,14.84l-11.895,11.999h88.193l-11.895-11.999
					C259.784,384.977,257.589,379.643,257.589,374.085z"/>
				<path style="opacity:0.44;fill:#C6FF00;" d="M205.403,341.655v32.43c0,2.539-0.479,5.024-1.35,7.359h54.885
					c-0.871-2.335-1.35-4.819-1.35-7.359v-32.43H205.403z"/>
				<rect x="205.403" y="343.108" style="fill:#263238;stroke:#263238;stroke-miterlimit:10;" width="52.185" height="24.063"/>
				
					<rect x="187.399" y="400.924" style="fill:#FFFFFF;stroke:#263238;stroke-linecap:round;stroke-linejoin:round;stroke-miterlimit:10;" width="88.176" height="1.715"/>
			</g>
			<path style="fill:#263238;stroke:#263238;stroke-miterlimit:10;" d="M357.041,357.624H105.951
				c-7.331,0-13.274-5.943-13.274-13.274V155.389c0-6.756,5.477-12.233,12.233-12.233h253.172c6.756,0,12.233,5.477,12.233,12.233
				V344.35C370.316,351.681,364.372,357.624,357.041,357.624z"/>
			<path style="fill:#FFFFFF;stroke:#263238;stroke-miterlimit:10;" d="M357.041,357.624H105.951
				c-7.331,0-13.274-5.943-13.274-13.274v-11.546h277.639v11.546C370.316,351.681,364.372,357.624,357.041,357.624z"/>
		</g>
		
			<rect x="133.029" y="156.683" style="fill:#FFFFFF;stroke:#263238;stroke-width:0.75;stroke-linecap:round;stroke-linejoin:round;stroke-miterlimit:10;" width="248.21" height="165.473"/>
		<rect x="133.029" y="156.683" style="fill:#C6FF00;" width="248.21" height="53.62"/>
		<g>
			<path style="fill:#C6FF00;" d="M158.323,311.023h-9.973v-87.47h9.973V311.023z M177.919,223.553h-9.973v87.47h9.973V223.553z
				 M197.516,223.553h-9.973v87.47h9.973V223.553z M217.112,223.553h-9.973v87.47h9.973V223.553z M236.708,223.553h-9.973v87.47
				h9.973V223.553z M256.305,223.553h-9.973v87.47h9.973V223.553z M275.901,223.553h-9.973v87.47h9.973V223.553z M295.497,223.553
				h-9.973v87.47h9.973V223.553z M315.094,223.553h-9.973v87.47h9.973V223.553z M334.69,223.553h-9.973v87.47h9.973V223.553z"/>
			<path style="opacity:0.4;fill:#FFFFFF;" d="M158.323,311.023h-9.973v-87.47h9.973V311.023z M177.919,223.553h-9.973v87.47h9.973
				V223.553z M197.516,223.553h-9.973v87.47h9.973V223.553z M217.112,223.553h-9.973v87.47h9.973V223.553z M236.708,223.553h-9.973
				v87.47h9.973V223.553z M256.305,223.553h-9.973v87.47h9.973V223.553z M275.901,223.553h-9.973v87.47h9.973V223.553z
				 M295.497,223.553h-9.973v87.47h9.973V223.553z M315.094,223.553h-9.973v87.47h9.973V223.553z M334.69,223.553h-9.973v87.47
				h9.973V223.553z"/>
		</g>
		
			<path style="fill:#FFFFFF;stroke:#263238;stroke-width:0.75;stroke-linecap:round;stroke-linejoin:round;stroke-miterlimit:10;" d="
			M210.452,176.753h-65.734c-1.21,0-2.191-0.981-2.191-2.191l0,0c0-1.21,0.981-2.191,2.191-2.191h65.734
			c1.21,0,2.191,0.981,2.191,2.191l0,0C212.643,175.772,211.662,176.753,210.452,176.753z"/>
		<path style="fill:#263238;stroke:#263238;stroke-linecap:round;stroke-linejoin:round;stroke-miterlimit:10;" d="M190.562,176.753
			h-45.844c-1.21,0-2.191-0.981-2.191-2.191l0,0c0-1.21,0.981-2.191,2.191-2.191h45.844V176.753z"/>
		
			<path style="fill:#FFFFFF;stroke:#263238;stroke-width:0.75;stroke-linecap:round;stroke-linejoin:round;stroke-miterlimit:10;" d="
			M210.452,185.351h-65.734c-1.21,0-2.191-0.981-2.191-2.191l0,0c0-1.21,0.981-2.191,2.191-2.191h65.734
			c1.21,0,2.191,0.981,2.191,2.191l0,0C212.643,184.37,211.662,185.351,210.452,185.351z"/>
		<path style="fill:#263238;stroke:#263238;stroke-linecap:round;stroke-linejoin:round;stroke-miterlimit:10;" d="M198.964,185.351
			h-54.246c-1.21,0-2.191-0.981-2.191-2.191l0,0c0-1.21,0.981-2.191,2.191-2.191h54.246V185.351z"/>
		
			<path style="fill:#FFFFFF;stroke:#263238;stroke-width:0.75;stroke-linecap:round;stroke-linejoin:round;stroke-miterlimit:10;" d="
			M210.452,193.949h-65.734c-1.21,0-2.191-0.981-2.191-2.191l0,0c0-1.21,0.981-2.191,2.191-2.191h65.734
			c1.21,0,2.191,0.981,2.191,2.191l0,0C212.643,192.968,211.662,193.949,210.452,193.949z"/>
		<path style="fill:#263238;stroke:#263238;stroke-linecap:round;stroke-linejoin:round;stroke-miterlimit:10;" d="M178.837,193.949
			h-34.119c-1.21,0-2.191-0.981-2.191-2.191l0,0c0-1.21,0.981-2.191,2.191-2.191h34.119V193.949z"/>
		
			<path style="fill:#FFFFFF;stroke:#263238;stroke-width:0.75;stroke-linecap:round;stroke-linejoin:round;stroke-miterlimit:10;" d="
			M210.452,202.547h-65.734c-1.21,0-2.191-0.981-2.191-2.191l0,0c0-1.21,0.981-2.191,2.191-2.191h65.734
			c1.21,0,2.191,0.981,2.191,2.191l0,0C212.643,201.566,211.662,202.547,210.452,202.547z"/>
		<path style="fill:#263238;stroke:#263238;stroke-linecap:round;stroke-linejoin:round;stroke-miterlimit:10;" d="M208.082,202.547
			h-63.364c-1.21,0-2.191-0.981-2.191-2.191l0,0c0-1.21,0.981-2.191,2.191-2.191h63.364V202.547z"/>
		<g>
			
				<line style="fill:none;stroke:#263238;stroke-width:0.75;stroke-linecap:round;stroke-linejoin:round;stroke-miterlimit:10;" x1="143.008" y1="311.023" x2="339.972" y2="311.023"/>
			<g>
				<g>
					
						<line style="fill:none;stroke:#263238;stroke-width:0.75;stroke-linecap:round;stroke-linejoin:round;stroke-miterlimit:10;" x1="162.705" y1="311.023" x2="162.705" y2="309.039"/>
					
						<line style="fill:none;stroke:#263238;stroke-width:0.75;stroke-linecap:round;stroke-linejoin:round;stroke-miterlimit:10;" x1="182.401" y1="311.023" x2="182.401" y2="309.039"/>
					
						<line style="fill:none;stroke:#263238;stroke-width:0.75;stroke-linecap:round;stroke-linejoin:round;stroke-miterlimit:10;" x1="202.097" y1="311.023" x2="202.097" y2="309.039"/>
					
						<line style="fill:none;stroke:#263238;stroke-width:0.75;stroke-linecap:round;stroke-linejoin:round;stroke-miterlimit:10;" x1="221.794" y1="311.023" x2="221.794" y2="309.039"/>
					
						<line style="fill:none;stroke:#263238;stroke-width:0.75;stroke-linecap:round;stroke-linejoin:round;stroke-miterlimit:10;" x1="241.49" y1="311.023" x2="241.49" y2="309.039"/>
					
						<line style="fill:none;stroke:#263238;stroke-width:0.75;stroke-linecap:round;stroke-linejoin:round;stroke-miterlimit:10;" x1="261.187" y1="311.023" x2="261.187" y2="309.039"/>
					
						<line style="fill:none;stroke:#263238;stroke-width:0.75;stroke-linecap:round;stroke-linejoin:round;stroke-miterlimit:10;" x1="280.883" y1="311.023" x2="280.883" y2="309.039"/>
					
						<line style="fill:none;stroke:#263238;stroke-width:0.75;stroke-linecap:round;stroke-linejoin:round;stroke-miterlimit:10;" x1="300.579" y1="311.023" x2="300.579" y2="309.039"/>
					
						<line style="fill:none;stroke:#263238;stroke-width:0.75;stroke-linecap:round;stroke-linejoin:round;stroke-miterlimit:10;" x1="320.276" y1="311.023" x2="320.276" y2="309.039"/>
					
						<line style="fill:none;stroke:#263238;stroke-width:0.75;stroke-linecap:round;stroke-linejoin:round;stroke-miterlimit:10;" x1="339.972" y1="311.023" x2="339.972" y2="309.039"/>
				</g>
			</g>
		</g>
		<g>
			
				<polyline style="fill:none;stroke:#263238;stroke-width:0.75;stroke-linecap:round;stroke-linejoin:round;stroke-miterlimit:10;" points="
				143.008,311.023 143.008,303.209 143.008,223.842 			"/>
			<g>
				<g>
					
						<line style="fill:none;stroke:#263238;stroke-width:0.75;stroke-linecap:round;stroke-linejoin:round;stroke-miterlimit:10;" x1="143.008" y1="303.209" x2="147.933" y2="303.209"/>
					
						<line style="fill:none;stroke:#263238;stroke-width:0.75;stroke-linecap:round;stroke-linejoin:round;stroke-miterlimit:10;" x1="143.008" y1="289.981" x2="147.933" y2="289.981"/>
					
						<line style="fill:none;stroke:#263238;stroke-width:0.75;stroke-linecap:round;stroke-linejoin:round;stroke-miterlimit:10;" x1="143.008" y1="276.753" x2="147.933" y2="276.753"/>
					
						<line style="fill:none;stroke:#263238;stroke-width:0.75;stroke-linecap:round;stroke-linejoin:round;stroke-miterlimit:10;" x1="143.008" y1="263.526" x2="147.933" y2="263.526"/>
					
						<line style="fill:none;stroke:#263238;stroke-width:0.75;stroke-linecap:round;stroke-linejoin:round;stroke-miterlimit:10;" x1="143.008" y1="250.298" x2="147.933" y2="250.298"/>
					
						<line style="fill:none;stroke:#263238;stroke-width:0.75;stroke-linecap:round;stroke-linejoin:round;stroke-miterlimit:10;" x1="143.008" y1="237.07" x2="147.933" y2="237.07"/>
					
						<line style="fill:none;stroke:#263238;stroke-width:0.75;stroke-linecap:round;stroke-linejoin:round;stroke-miterlimit:10;" x1="143.008" y1="223.842" x2="147.933" y2="223.842"/>
				</g>
			</g>
		</g>
		
			<rect x="343.576" y="170.734" style="fill:#FFFFFF;stroke:#263238;stroke-width:0.75;stroke-linecap:round;stroke-linejoin:round;stroke-miterlimit:10;" width="32.127" height="33.078"/>
		
			<rect x="343.576" y="170.734" style="fill:#263238;stroke:#263238;stroke-width:0.911;stroke-linecap:round;stroke-linejoin:round;stroke-miterlimit:10;" width="32.127" height="5.677"/>
		
			<line style="fill:none;stroke:#263238;stroke-width:0.75;stroke-linecap:round;stroke-linejoin:round;stroke-miterlimit:10;" x1="346.53" y1="181.038" x2="346.53" y2="199.834"/>
		
			<line style="fill:none;stroke:#263238;stroke-width:0.75;stroke-linecap:round;stroke-linejoin:round;stroke-miterlimit:10;" x1="350.867" y1="181.038" x2="350.867" y2="199.834"/>
		
			<line style="fill:none;stroke:#263238;stroke-width:0.75;stroke-linecap:round;stroke-linejoin:round;stroke-miterlimit:10;" x1="355.205" y1="181.038" x2="355.205" y2="199.834"/>
		
			<line style="fill:none;stroke:#263238;stroke-width:0.75;stroke-linecap:round;stroke-linejoin:round;stroke-miterlimit:10;" x1="359.542" y1="181.038" x2="359.542" y2="199.834"/>
		
			<line style="fill:none;stroke:#263238;stroke-width:0.75;stroke-linecap:round;stroke-linejoin:round;stroke-miterlimit:10;" x1="363.88" y1="181.038" x2="363.88" y2="199.834"/>
		
			<line style="fill:none;stroke:#263238;stroke-width:0.75;stroke-linecap:round;stroke-linejoin:round;stroke-miterlimit:10;" x1="368.217" y1="181.038" x2="368.217" y2="199.834"/>
		
			<line style="fill:none;stroke:#263238;stroke-width:0.75;stroke-linecap:round;stroke-linejoin:round;stroke-miterlimit:10;" x1="372.555" y1="181.038" x2="372.555" y2="199.834"/>
		
			<line style="fill:none;stroke:#263238;stroke-width:0.75;stroke-linecap:round;stroke-linejoin:round;stroke-miterlimit:10;" x1="372.266" y1="183.496" x2="346.674" y2="183.496"/>
		
			<line style="fill:none;stroke:#263238;stroke-width:0.75;stroke-linecap:round;stroke-linejoin:round;stroke-miterlimit:10;" x1="372.266" y1="186.966" x2="346.674" y2="186.966"/>
		
			<line style="fill:none;stroke:#263238;stroke-width:0.75;stroke-linecap:round;stroke-linejoin:round;stroke-miterlimit:10;" x1="372.266" y1="190.436" x2="346.674" y2="190.436"/>
		
			<line style="fill:none;stroke:#263238;stroke-width:0.75;stroke-linecap:round;stroke-linejoin:round;stroke-miterlimit:10;" x1="372.266" y1="193.906" x2="346.674" y2="193.906"/>
		
			<line style="fill:none;stroke:#263238;stroke-width:0.75;stroke-linecap:round;stroke-linejoin:round;stroke-miterlimit:10;" x1="372.266" y1="197.376" x2="346.674" y2="197.376"/>
		<g>
			<g>
				<g>
					
						<line style="fill:none;stroke:#263238;stroke-width:2;stroke-linecap:round;stroke-linejoin:round;stroke-miterlimit:10;" x1="172.553" y1="271.339" x2="152.857" y2="311.023"/>
					
						<line style="fill:none;stroke:#263238;stroke-width:2;stroke-linecap:round;stroke-linejoin:round;stroke-miterlimit:10;" x1="192.249" y1="297.795" x2="172.553" y2="271.339"/>
					
						<line style="fill:none;stroke:#263238;stroke-width:2;stroke-linecap:round;stroke-linejoin:round;stroke-miterlimit:10;" x1="211.946" y1="276.63" x2="192.249" y2="297.795"/>
					
						<line style="fill:none;stroke:#263238;stroke-width:2;stroke-linecap:round;stroke-linejoin:round;stroke-miterlimit:10;" x1="231.642" y1="231.655" x2="211.946" y2="276.63"/>
					
						<line style="fill:none;stroke:#263238;stroke-width:2;stroke-linecap:round;stroke-linejoin:round;stroke-miterlimit:10;" x1="251.338" y1="244.883" x2="231.642" y2="231.655"/>
					
						<line style="fill:none;stroke:#263238;stroke-width:2;stroke-linecap:round;stroke-linejoin:round;stroke-miterlimit:10;" x1="271.035" y1="291.181" x2="251.338" y2="244.883"/>
					
						<line style="fill:none;stroke:#263238;stroke-width:2;stroke-linecap:round;stroke-linejoin:round;stroke-miterlimit:10;" x1="290.731" y1="287.212" x2="271.035" y2="291.181"/>
					
						<line style="fill:none;stroke:#263238;stroke-width:2;stroke-linecap:round;stroke-linejoin:round;stroke-miterlimit:10;" x1="310.427" y1="281.921" x2="290.731" y2="287.212"/>
					
						<line style="fill:none;stroke:#263238;stroke-width:2;stroke-linecap:round;stroke-linejoin:round;stroke-miterlimit:10;" x1="330.124" y1="258.111" x2="310.427" y2="281.921"/>
				</g>
			</g>
		</g>
		<g>
			<g>
				<g>
					
						<path style="fill:#FFFFFF;stroke:#263238;stroke-width:0.75;stroke-linecap:round;stroke-linejoin:round;stroke-miterlimit:10;" d="
						M152.857,308.96L152.857,308.96c1.139,0,2.063,0.924,2.063,2.063l0,0c0,1.139-0.924,2.063-2.063,2.063l0,0
						c-1.139,0-2.063-0.924-2.063-2.063l0,0C150.794,309.883,151.717,308.96,152.857,308.96z"/>
					
						<path style="fill:#FFFFFF;stroke:#263238;stroke-width:0.75;stroke-linecap:round;stroke-linejoin:round;stroke-miterlimit:10;" d="
						M172.553,269.276L172.553,269.276c1.139,0,2.063,0.924,2.063,2.063l0,0c0,1.139-0.924,2.063-2.063,2.063l0,0
						c-1.139,0-2.063-0.924-2.063-2.063l0,0C170.49,270.2,171.414,269.276,172.553,269.276z"/>
					
						<path style="fill:#FFFFFF;stroke:#263238;stroke-width:0.75;stroke-linecap:round;stroke-linejoin:round;stroke-miterlimit:10;" d="
						M192.249,295.732L192.249,295.732c1.139,0,2.063,0.924,2.063,2.063l0,0c0,1.139-0.924,2.063-2.063,2.063l0,0
						c-1.139,0-2.063-0.924-2.063-2.063l0,0C190.186,296.655,191.11,295.732,192.249,295.732z"/>
					
						<path style="fill:#FFFFFF;stroke:#263238;stroke-width:0.75;stroke-linecap:round;stroke-linejoin:round;stroke-miterlimit:10;" d="
						M211.946,274.567L211.946,274.567c1.139,0,2.063,0.924,2.063,2.063l0,0c0,1.139-0.924,2.063-2.063,2.063l0,0
						c-1.139,0-2.063-0.924-2.063-2.063l0,0C209.883,275.491,210.806,274.567,211.946,274.567z"/>
					
						<path style="fill:#FFFFFF;stroke:#263238;stroke-width:0.75;stroke-linecap:round;stroke-linejoin:round;stroke-miterlimit:10;" d="
						M231.642,229.592L231.642,229.592c1.139,0,2.063,0.924,2.063,2.063l0,0c0,1.139-0.924,2.063-2.063,2.063l0,0
						c-1.139,0-2.063-0.924-2.063-2.063l0,0C229.579,230.516,230.503,229.592,231.642,229.592z"/>
					
						<path style="fill:#FFFFFF;stroke:#263238;stroke-width:0.75;stroke-linecap:round;stroke-linejoin:round;stroke-miterlimit:10;" d="
						M251.338,242.82L251.338,242.82c1.139,0,2.063,0.924,2.063,2.063l0,0c0,1.139-0.924,2.063-2.063,2.063l0,0
						c-1.139,0-2.063-0.924-2.063-2.063l0,0C249.275,243.744,250.199,242.82,251.338,242.82z"/>
					
						<path style="fill:#FFFFFF;stroke:#263238;stroke-width:0.75;stroke-linecap:round;stroke-linejoin:round;stroke-miterlimit:10;" d="
						M271.035,289.118L271.035,289.118c1.139,0,2.063,0.924,2.063,2.063l0,0c0,1.139-0.924,2.063-2.063,2.063l0,0
						c-1.139,0-2.063-0.924-2.063-2.063l0,0C268.972,290.042,269.895,289.118,271.035,289.118z"/>
					
						<path style="fill:#FFFFFF;stroke:#263238;stroke-width:0.75;stroke-linecap:round;stroke-linejoin:round;stroke-miterlimit:10;" d="
						M290.731,285.149L290.731,285.149c1.139,0,2.063,0.924,2.063,2.063l0,0c0,1.139-0.924,2.063-2.063,2.063l0,0
						c-1.139,0-2.063-0.924-2.063-2.063l0,0C288.668,286.073,289.592,285.149,290.731,285.149z"/>
					
						<path style="fill:#FFFFFF;stroke:#263238;stroke-width:0.75;stroke-linecap:round;stroke-linejoin:round;stroke-miterlimit:10;" d="
						M310.427,279.858L310.427,279.858c1.139,0,2.063,0.924,2.063,2.063l0,0c0,1.139-0.924,2.063-2.063,2.063l0,0
						c-1.139,0-2.063-0.924-2.063-2.063l0,0C308.364,280.782,309.288,279.858,310.427,279.858z"/>
					
						<path style="fill:#FFFFFF;stroke:#263238;stroke-width:0.75;stroke-linecap:round;stroke-linejoin:round;stroke-miterlimit:10;" d="
						M330.124,256.048L330.124,256.048c1.139,0,2.063,0.924,2.063,2.063l0,0c0,1.139-0.924,2.063-2.063,2.063l0,0
						c-1.139,0-2.063-0.924-2.063-2.063l0,0C328.061,256.972,328.984,256.048,330.124,256.048z"/>
				</g>
			</g>
		</g>
		<g>
			
				<path style="fill:#FFFFFF;stroke:#263238;stroke-width:0.75;stroke-linecap:round;stroke-linejoin:round;stroke-miterlimit:10;" d="
				M178.132,262.145h-10.748c-1.484,0-2.687-1.203-2.687-2.687l0,0c0-1.484,1.203-2.687,2.687-2.687h10.748
				c1.484,0,2.687,1.203,2.687,2.687l0,0C180.819,260.942,179.616,262.145,178.132,262.145z"/>
			
				<line style="fill:none;stroke:#263238;stroke-width:0.75;stroke-linecap:round;stroke-linejoin:round;stroke-miterlimit:10;" x1="172.553" y1="269.276" x2="172.553" y2="262.405"/>
		</g>
		<g>
			
				<path style="fill:#FFFFFF;stroke:#263238;stroke-width:0.75;stroke-linecap:round;stroke-linejoin:round;stroke-miterlimit:10;" d="
				M236.955,222.543h-10.748c-1.484,0-2.687-1.203-2.687-2.687l0,0c0-1.484,1.203-2.687,2.687-2.687h10.748
				c1.484,0,2.687,1.203,2.687,2.687l0,0C239.642,221.34,238.439,222.543,236.955,222.543z"/>
			
				<line style="fill:none;stroke:#263238;stroke-width:0.75;stroke-linecap:round;stroke-linejoin:round;stroke-miterlimit:10;" x1="231.376" y1="229.674" x2="231.376" y2="222.803"/>
		</g>
		<g>
			
				<path style="fill:#FFFFFF;stroke:#263238;stroke-width:0.75;stroke-linecap:round;stroke-linejoin:round;stroke-miterlimit:10;" d="
				M335.263,248.591h-10.748c-1.484,0-2.687-1.203-2.687-2.687l0,0c0-1.484,1.203-2.687,2.687-2.687h10.748
				c1.484,0,2.687,1.203,2.687,2.687l0,0C337.95,247.388,336.747,248.591,335.263,248.591z"/>
			
				<line style="fill:none;stroke:#263238;stroke-width:0.75;stroke-linecap:round;stroke-linejoin:round;stroke-miterlimit:10;" x1="329.684" y1="255.721" x2="329.684" y2="248.851"/>
		</g>
		<g>
			<g>
				
					<path style="fill:#FFFFFF;stroke:#263238;stroke-width:0.75;stroke-linecap:round;stroke-linejoin:round;stroke-miterlimit:10;" d="
					M239.871,170.734c-8.566,0-15.535,6.968-15.535,15.534c0,8.566,6.969,15.535,15.535,15.535c8.566,0,15.535-6.968,15.535-15.535
					C255.406,177.703,248.437,170.734,239.871,170.734z M239.871,197.243c-6.051,0-10.975-4.923-10.975-10.975
					c0-6.051,4.923-10.974,10.975-10.974s10.975,4.923,10.975,10.974C250.846,192.32,245.923,197.243,239.871,197.243z"/>
			</g>
			<g>
				
					<path style="fill:#263238;stroke:#263238;stroke-width:0.911;stroke-linecap:round;stroke-linejoin:round;stroke-miterlimit:10;" d="
					M239.871,170.734c-4.274,0-8.257,1.699-11.215,4.785l3.292,3.156c2.09-2.181,4.904-3.382,7.924-3.382
					c6.051,0,10.975,4.923,10.975,10.974c0,6.051-4.923,10.975-10.975,10.975v4.56c8.566,0,15.535-6.968,15.535-15.535
					C255.406,177.703,248.437,170.734,239.871,170.734z"/>
			</g>
		</g>
		<g>
			
				<line style="fill:none;stroke:#263238;stroke-width:0.75;stroke-linecap:round;stroke-linejoin:round;stroke-miterlimit:10;" x1="235.547" y1="185.451" x2="244.196" y2="185.451"/>
			
				<line style="fill:none;stroke:#263238;stroke-width:0.75;stroke-linecap:round;stroke-linejoin:round;stroke-miterlimit:10;" x1="235.547" y1="187.087" x2="244.196" y2="187.087"/>
		</g>
		<g>
			
				<line style="fill:none;stroke:#263238;stroke-width:0.75;stroke-linecap:round;stroke-linejoin:round;stroke-miterlimit:10;" x1="143.752" y1="167.524" x2="152.401" y2="167.524"/>
			
				<line style="fill:none;stroke:#263238;stroke-width:0.75;stroke-linecap:round;stroke-linejoin:round;stroke-miterlimit:10;" x1="143.752" y1="169.161" x2="152.401" y2="169.161"/>
		</g>
		<g>
			
				<line style="fill:none;stroke:#263238;stroke-width:0.75;stroke-linecap:round;stroke-linejoin:round;stroke-miterlimit:10;" x1="154.438" y1="167.524" x2="163.088" y2="167.524"/>
			
				<line style="fill:none;stroke:#263238;stroke-width:0.75;stroke-linecap:round;stroke-linejoin:round;stroke-miterlimit:10;" x1="154.438" y1="169.161" x2="163.088" y2="169.161"/>
		</g>
		<g>
			
				<line style="fill:none;stroke:#263238;stroke-width:0.75;stroke-linecap:round;stroke-linejoin:round;stroke-miterlimit:10;" x1="165.125" y1="167.524" x2="173.774" y2="167.524"/>
			
				<line style="fill:none;stroke:#263238;stroke-width:0.75;stroke-linecap:round;stroke-linejoin:round;stroke-miterlimit:10;" x1="165.125" y1="169.161" x2="173.774" y2="169.161"/>
		</g>
		<g>
			
				<line style="fill:none;stroke:#263238;stroke-width:0.75;stroke-linecap:round;stroke-linejoin:round;stroke-miterlimit:10;" x1="143.752" y1="215.626" x2="152.401" y2="215.626"/>
			
				<line style="fill:none;stroke:#263238;stroke-width:0.75;stroke-linecap:round;stroke-linejoin:round;stroke-miterlimit:10;" x1="143.752" y1="217.263" x2="152.401" y2="217.263"/>
		</g>
		<g>
			
				<line style="fill:none;stroke:#263238;stroke-width:0.75;stroke-linecap:round;stroke-linejoin:round;stroke-miterlimit:10;" x1="154.438" y1="215.626" x2="163.088" y2="215.626"/>
			
				<line style="fill:none;stroke:#263238;stroke-width:0.75;stroke-linecap:round;stroke-linejoin:round;stroke-miterlimit:10;" x1="154.438" y1="217.263" x2="163.088" y2="217.263"/>
		</g>
		<g>
			
				<line style="fill:none;stroke:#263238;stroke-width:0.75;stroke-linecap:round;stroke-linejoin:round;stroke-miterlimit:10;" x1="165.125" y1="215.626" x2="173.774" y2="215.626"/>
			
				<line style="fill:none;stroke:#263238;stroke-width:0.75;stroke-linecap:round;stroke-linejoin:round;stroke-miterlimit:10;" x1="165.125" y1="217.263" x2="173.774" y2="217.263"/>
		</g>
		<g>
			<g>
				
					<line style="fill:none;stroke:#263238;stroke-width:0.75;stroke-linecap:round;stroke-linejoin:round;stroke-miterlimit:10;" x1="345.681" y1="223.896" x2="354.33" y2="223.896"/>
			</g>
			<g>
				
					<line style="fill:none;stroke:#263238;stroke-width:0.75;stroke-linecap:round;stroke-linejoin:round;stroke-miterlimit:10;" x1="356.367" y1="223.896" x2="365.017" y2="223.896"/>
			</g>
			<g>
				
					<line style="fill:none;stroke:#263238;stroke-width:0.75;stroke-linecap:round;stroke-linejoin:round;stroke-miterlimit:10;" x1="367.054" y1="223.896" x2="375.703" y2="223.896"/>
			</g>
		</g>
		<g>
			<g>
				
					<line style="fill:none;stroke:#263238;stroke-width:0.75;stroke-linecap:round;stroke-linejoin:round;stroke-miterlimit:10;" x1="345.681" y1="225.912" x2="354.33" y2="225.912"/>
			</g>
			<g>
				
					<line style="fill:none;stroke:#263238;stroke-width:0.75;stroke-linecap:round;stroke-linejoin:round;stroke-miterlimit:10;" x1="356.367" y1="225.912" x2="365.017" y2="225.912"/>
			</g>
			<g>
				
					<line style="fill:none;stroke:#263238;stroke-width:0.75;stroke-linecap:round;stroke-linejoin:round;stroke-miterlimit:10;" x1="367.054" y1="225.912" x2="375.703" y2="225.912"/>
			</g>
		</g>
		<g>
			<g>
				
					<line style="fill:none;stroke:#263238;stroke-width:0.75;stroke-linecap:round;stroke-linejoin:round;stroke-miterlimit:10;" x1="345.681" y1="227.928" x2="354.33" y2="227.928"/>
			</g>
			<g>
				
					<line style="fill:none;stroke:#263238;stroke-width:0.75;stroke-linecap:round;stroke-linejoin:round;stroke-miterlimit:10;" x1="356.367" y1="227.928" x2="365.017" y2="227.928"/>
			</g>
			<g>
				
					<line style="fill:none;stroke:#263238;stroke-width:0.75;stroke-linecap:round;stroke-linejoin:round;stroke-miterlimit:10;" x1="367.054" y1="227.928" x2="375.703" y2="227.928"/>
			</g>
		</g>
		<g>
			<g>
				
					<line style="fill:none;stroke:#263238;stroke-width:0.75;stroke-linecap:round;stroke-linejoin:round;stroke-miterlimit:10;" x1="345.681" y1="229.944" x2="354.33" y2="229.944"/>
			</g>
			<g>
				
					<line style="fill:none;stroke:#263238;stroke-width:0.75;stroke-linecap:round;stroke-linejoin:round;stroke-miterlimit:10;" x1="356.367" y1="229.944" x2="365.017" y2="229.944"/>
			</g>
			<g>
				
					<line style="fill:none;stroke:#263238;stroke-width:0.75;stroke-linecap:round;stroke-linejoin:round;stroke-miterlimit:10;" x1="367.054" y1="229.944" x2="375.703" y2="229.944"/>
			</g>
		</g>
		<g>
			<g>
				
					<line style="fill:none;stroke:#263238;stroke-width:0.75;stroke-linecap:round;stroke-linejoin:round;stroke-miterlimit:10;" x1="345.681" y1="231.96" x2="354.33" y2="231.96"/>
			</g>
			<g>
				
					<line style="fill:none;stroke:#263238;stroke-width:0.75;stroke-linecap:round;stroke-linejoin:round;stroke-miterlimit:10;" x1="356.367" y1="231.96" x2="365.017" y2="231.96"/>
			</g>
			<g>
				
					<line style="fill:none;stroke:#263238;stroke-width:0.75;stroke-linecap:round;stroke-linejoin:round;stroke-miterlimit:10;" x1="367.054" y1="231.96" x2="375.703" y2="231.96"/>
			</g>
		</g>
		<g>
			<g>
				
					<line style="fill:none;stroke:#263238;stroke-width:0.75;stroke-linecap:round;stroke-linejoin:round;stroke-miterlimit:10;" x1="345.681" y1="233.976" x2="354.33" y2="233.976"/>
			</g>
			<g>
				
					<line style="fill:none;stroke:#263238;stroke-width:0.75;stroke-linecap:round;stroke-linejoin:round;stroke-miterlimit:10;" x1="356.367" y1="233.976" x2="365.017" y2="233.976"/>
			</g>
			<g>
				
					<line style="fill:none;stroke:#263238;stroke-width:0.75;stroke-linecap:round;stroke-linejoin:round;stroke-miterlimit:10;" x1="367.054" y1="233.976" x2="375.703" y2="233.976"/>
			</g>
		</g>
		<g>
			<g>
				
					<line style="fill:none;stroke:#263238;stroke-width:0.75;stroke-linecap:round;stroke-linejoin:round;stroke-miterlimit:10;" x1="345.681" y1="235.992" x2="354.33" y2="235.992"/>
			</g>
			<g>
				
					<line style="fill:none;stroke:#263238;stroke-width:0.75;stroke-linecap:round;stroke-linejoin:round;stroke-miterlimit:10;" x1="356.367" y1="235.992" x2="365.017" y2="235.992"/>
			</g>
			<g>
				
					<line style="fill:none;stroke:#263238;stroke-width:0.75;stroke-linecap:round;stroke-linejoin:round;stroke-miterlimit:10;" x1="367.054" y1="235.992" x2="375.703" y2="235.992"/>
			</g>
		</g>
		<g>
			<g>
				
					<line style="fill:none;stroke:#263238;stroke-width:0.75;stroke-linecap:round;stroke-linejoin:round;stroke-miterlimit:10;" x1="345.681" y1="238.007" x2="354.33" y2="238.007"/>
			</g>
			<g>
				
					<line style="fill:none;stroke:#263238;stroke-width:0.75;stroke-linecap:round;stroke-linejoin:round;stroke-miterlimit:10;" x1="356.367" y1="238.007" x2="365.017" y2="238.007"/>
			</g>
			<g>
				
					<line style="fill:none;stroke:#263238;stroke-width:0.75;stroke-linecap:round;stroke-linejoin:round;stroke-miterlimit:10;" x1="367.054" y1="238.007" x2="375.703" y2="238.007"/>
			</g>
		</g>
		<g>
			<g>
				
					<line style="fill:none;stroke:#263238;stroke-width:0.75;stroke-linecap:round;stroke-linejoin:round;stroke-miterlimit:10;" x1="345.681" y1="240.023" x2="354.33" y2="240.023"/>
			</g>
			<g>
				
					<line style="fill:none;stroke:#263238;stroke-width:0.75;stroke-linecap:round;stroke-linejoin:round;stroke-miterlimit:10;" x1="356.367" y1="240.023" x2="365.017" y2="240.023"/>
			</g>
			<g>
				
					<line style="fill:none;stroke:#263238;stroke-width:0.75;stroke-linecap:round;stroke-linejoin:round;stroke-miterlimit:10;" x1="367.054" y1="240.023" x2="375.703" y2="240.023"/>
			</g>
		</g>
		<g>
			<g>
				
					<line style="fill:none;stroke:#263238;stroke-width:0.75;stroke-linecap:round;stroke-linejoin:round;stroke-miterlimit:10;" x1="345.681" y1="242.039" x2="354.33" y2="242.039"/>
			</g>
			<g>
				
					<line style="fill:none;stroke:#263238;stroke-width:0.75;stroke-linecap:round;stroke-linejoin:round;stroke-miterlimit:10;" x1="356.367" y1="242.039" x2="365.017" y2="242.039"/>
			</g>
			<g>
				
					<line style="fill:none;stroke:#263238;stroke-width:0.75;stroke-linecap:round;stroke-linejoin:round;stroke-miterlimit:10;" x1="367.054" y1="242.039" x2="375.703" y2="242.039"/>
			</g>
		</g>
		<g>
			<g>
				
					<line style="fill:none;stroke:#263238;stroke-width:0.75;stroke-linecap:round;stroke-linejoin:round;stroke-miterlimit:10;" x1="345.681" y1="244.055" x2="354.33" y2="244.055"/>
			</g>
			<g>
				
					<line style="fill:none;stroke:#263238;stroke-width:0.75;stroke-linecap:round;stroke-linejoin:round;stroke-miterlimit:10;" x1="356.367" y1="244.055" x2="365.017" y2="244.055"/>
			</g>
			<g>
				
					<line style="fill:none;stroke:#263238;stroke-width:0.75;stroke-linecap:round;stroke-linejoin:round;stroke-miterlimit:10;" x1="367.054" y1="244.055" x2="375.703" y2="244.055"/>
			</g>
		</g>
		<g>
			<g>
				
					<line style="fill:none;stroke:#263238;stroke-width:0.75;stroke-linecap:round;stroke-linejoin:round;stroke-miterlimit:10;" x1="345.681" y1="246.071" x2="354.33" y2="246.071"/>
			</g>
			<g>
				
					<line style="fill:none;stroke:#263238;stroke-width:0.75;stroke-linecap:round;stroke-linejoin:round;stroke-miterlimit:10;" x1="356.367" y1="246.071" x2="365.017" y2="246.071"/>
			</g>
			<g>
				
					<line style="fill:none;stroke:#263238;stroke-width:0.75;stroke-linecap:round;stroke-linejoin:round;stroke-miterlimit:10;" x1="367.054" y1="246.071" x2="375.703" y2="246.071"/>
			</g>
		</g>
		<g>
			<g>
				
					<line style="fill:none;stroke:#263238;stroke-width:0.75;stroke-linecap:round;stroke-linejoin:round;stroke-miterlimit:10;" x1="345.681" y1="248.087" x2="354.33" y2="248.087"/>
			</g>
			<g>
				
					<line style="fill:none;stroke:#263238;stroke-width:0.75;stroke-linecap:round;stroke-linejoin:round;stroke-miterlimit:10;" x1="356.367" y1="248.087" x2="365.017" y2="248.087"/>
			</g>
			<g>
				
					<line style="fill:none;stroke:#263238;stroke-width:0.75;stroke-linecap:round;stroke-linejoin:round;stroke-miterlimit:10;" x1="367.054" y1="248.087" x2="375.703" y2="248.087"/>
			</g>
		</g>
		<g>
			<g>
				
					<line style="fill:none;stroke:#263238;stroke-width:0.75;stroke-linecap:round;stroke-linejoin:round;stroke-miterlimit:10;" x1="345.681" y1="250.103" x2="354.33" y2="250.103"/>
			</g>
			<g>
				
					<line style="fill:none;stroke:#263238;stroke-width:0.75;stroke-linecap:round;stroke-linejoin:round;stroke-miterlimit:10;" x1="356.367" y1="250.103" x2="365.017" y2="250.103"/>
			</g>
			<g>
				
					<line style="fill:none;stroke:#263238;stroke-width:0.75;stroke-linecap:round;stroke-linejoin:round;stroke-miterlimit:10;" x1="367.054" y1="250.103" x2="375.703" y2="250.103"/>
			</g>
		</g>
		<g>
			<g>
				
					<line style="fill:none;stroke:#263238;stroke-width:0.75;stroke-linecap:round;stroke-linejoin:round;stroke-miterlimit:10;" x1="345.681" y1="252.119" x2="354.33" y2="252.119"/>
			</g>
			<g>
				
					<line style="fill:none;stroke:#263238;stroke-width:0.75;stroke-linecap:round;stroke-linejoin:round;stroke-miterlimit:10;" x1="356.367" y1="252.119" x2="365.017" y2="252.119"/>
			</g>
			<g>
				
					<line style="fill:none;stroke:#263238;stroke-width:0.75;stroke-linecap:round;stroke-linejoin:round;stroke-miterlimit:10;" x1="367.054" y1="252.119" x2="375.703" y2="252.119"/>
			</g>
		</g>
		<g>
			<g>
				
					<path style="fill:#FFFFFF;stroke:#263238;stroke-width:0.75;stroke-linecap:round;stroke-linejoin:round;stroke-miterlimit:10;" d="
					M276.317,170.734c-8.566,0-15.534,6.968-15.534,15.534c0,8.566,6.969,15.535,15.534,15.535c8.566,0,15.535-6.968,15.535-15.535
					C291.852,177.703,284.883,170.734,276.317,170.734z M276.317,197.243c-6.051,0-10.974-4.923-10.974-10.975
					c0-6.051,4.923-10.974,10.974-10.974c6.051,0,10.975,4.923,10.975,10.974C287.292,192.32,282.368,197.243,276.317,197.243z"/>
			</g>
			
				<path style="fill:#263238;stroke:#263238;stroke-width:0.911;stroke-linecap:round;stroke-linejoin:round;stroke-miterlimit:10;" d="
				M286.965,183.659l4.299-1.612c-1.844-6.52-7.844-11.313-14.947-11.313c-4.274,0-8.257,1.699-11.215,4.785l3.292,3.156
				c2.09-2.181,4.904-3.382,7.924-3.382C281.467,175.294,285.789,178.866,286.965,183.659z"/>
		</g>
		<g>
			
				<line style="fill:none;stroke:#263238;stroke-width:0.75;stroke-linecap:round;stroke-linejoin:round;stroke-miterlimit:10;" x1="271.781" y1="185.451" x2="280.43" y2="185.451"/>
			
				<line style="fill:none;stroke:#263238;stroke-width:0.75;stroke-linecap:round;stroke-linejoin:round;stroke-miterlimit:10;" x1="271.781" y1="187.087" x2="280.43" y2="187.087"/>
		</g>
		<g>
			<g>
				
					<path style="fill:#FFFFFF;stroke:#263238;stroke-width:0.75;stroke-linecap:round;stroke-linejoin:round;stroke-miterlimit:10;" d="
					M326.691,176.861c-5.188-6.816-14.953-8.141-21.77-2.954c-6.817,5.188-8.141,14.953-2.954,21.77
					c5.188,6.816,14.953,8.142,21.77,2.954C330.554,193.443,331.879,183.677,326.691,176.861z M305.596,192.915
					c-3.665-4.815-2.728-11.715,2.087-15.379c4.815-3.665,11.715-2.729,15.379,2.087c3.665,4.815,2.729,11.715-2.087,15.38
					C316.161,198.667,309.261,197.731,305.596,192.915z"/>
			</g>
			
				<path style="fill:#263238;stroke:#263238;stroke-width:0.911;stroke-linecap:round;stroke-linejoin:round;stroke-miterlimit:10;" d="
				M322.855,193.162l3.886,2.445c4.072-5.416,4.252-13.093-0.05-18.745c-2.589-3.401-6.353-5.542-10.6-6.027l-0.518,4.531
				c3.001,0.342,5.661,1.855,7.49,4.257C326.182,183.721,325.957,189.323,322.855,193.162z"/>
		</g>
		<g>
			
				<line style="fill:none;stroke:#263238;stroke-width:0.75;stroke-linecap:round;stroke-linejoin:round;stroke-miterlimit:10;" x1="309.793" y1="185.451" x2="318.443" y2="185.451"/>
			
				<line style="fill:none;stroke:#263238;stroke-width:0.75;stroke-linecap:round;stroke-linejoin:round;stroke-miterlimit:10;" x1="309.793" y1="187.087" x2="318.443" y2="187.087"/>
		</g>
		<g>
			<g>
				<path style="fill:#C6FF00;stroke:#263238;stroke-linecap:round;stroke-linejoin:round;stroke-miterlimit:10;" d="
					M372.691,285.527c-5.188-6.816-14.953-8.142-21.77-2.954c-6.817,5.188-8.141,14.953-2.954,21.77
					c5.188,6.816,14.953,8.142,21.77,2.954C376.554,302.11,377.879,292.344,372.691,285.527z M351.596,301.582
					c-3.665-4.815-2.728-11.715,2.087-15.379c4.815-3.665,11.715-2.729,15.379,2.087c3.665,4.816,2.729,11.715-2.087,15.38
					C362.161,307.333,355.261,306.397,351.596,301.582z"/>
			</g>
			
				<path style="fill:#263238;stroke:#263238;stroke-width:0.911;stroke-linecap:round;stroke-linejoin:round;stroke-miterlimit:10;" d="
				M368.855,301.828l3.886,2.444c4.072-5.416,4.252-13.093-0.05-18.745c-2.589-3.401-6.353-5.542-10.6-6.027l-0.518,4.531
				c3.001,0.342,5.661,1.855,7.49,4.257C372.182,292.388,371.957,297.99,368.855,301.828z"/>
		</g>
		<g>
			
				<line style="fill:none;stroke:#263238;stroke-width:0.75;stroke-linecap:round;stroke-linejoin:round;stroke-miterlimit:10;" x1="355.793" y1="294.117" x2="364.443" y2="294.117"/>
			
				<line style="fill:none;stroke:#263238;stroke-width:0.75;stroke-linecap:round;stroke-linejoin:round;stroke-miterlimit:10;" x1="355.793" y1="295.754" x2="364.443" y2="295.754"/>
		</g>
	</g>
	
		<path style="fill:#FFFFFF;stroke:#263238;stroke-width:0.75;stroke-linecap:round;stroke-linejoin:round;stroke-miterlimit:10;" d="
		M191.849,120.602c0,0-5.522,2.121-7.111,4.925c-0.963,1.699-0.09,5.292,3.859,6.674c1.702,0.596,4.141-0.174,6.891-1.174
		S195.849,119.352,191.849,120.602z"/>
	<path style="opacity:0.5;fill:#C6FF00;" d="M190.018,131.315c0,0-3.567-0.761-3.567-3.767s4.857-4.857,6.245-4.857
		s2.082,1.388,2.082,3.701C194.777,128.704,191.966,132.075,190.018,131.315z"/>
	<g>
		
			<path style="fill:#FFFFFF;stroke:#263238;stroke-width:0.75;stroke-linecap:round;stroke-linejoin:round;stroke-miterlimit:10;" d="
			M122.97,137.151l9.806,31.589l-1.3,7.15l3.575,5.2l1.3-0.65l0.65-4.875v-3.9l1.625,5.2l1.625-0.975l-0.975-7.475l-3.25-5.2
			l-4.537-24.688C131.489,138.527,127.201,136.275,122.97,137.151z"/>
		
			<line style="fill:none;stroke:#263238;stroke-width:0.5;stroke-linecap:round;stroke-linejoin:round;stroke-miterlimit:10;" x1="134.943" y1="180.639" x2="132.436" y2="174.965"/>
		
			<line style="fill:none;stroke:#263238;stroke-width:0.5;stroke-linecap:round;stroke-linejoin:round;stroke-miterlimit:10;" x1="136.351" y1="180.439" x2="134.283" y2="173.645"/>
	</g>
	<g>
		
			<path style="fill:#FFFFFF;stroke:#263238;stroke-width:0.75;stroke-linecap:round;stroke-linejoin:round;stroke-miterlimit:10;" d="
			M195.599,125.102l17.749,22.351l5.543,4.699l0.539,6.287l-1.417,0.323l-3.597-3.354l-2.476-3.013l2.046,5.049l-1.874,0.278
			l-3.992-6.395l0.083-4.419l-18.184-15.595c-1.496-1.303-1.211-5.184,0.508-6.174C191.682,124.475,193.686,124.196,195.599,125.102
			z"/>
		
			<line style="fill:none;stroke:#263238;stroke-width:0.5;stroke-linecap:round;stroke-linejoin:round;stroke-miterlimit:10;" x1="218.841" y1="158.725" x2="214.487" y2="151.072"/>
		
			<line style="fill:none;stroke:#263238;stroke-width:0.5;stroke-linecap:round;stroke-linejoin:round;stroke-miterlimit:10;" x1="218.709" y1="155.954" x2="216.73" y2="151.732"/>
	</g>
</g>
<g id="Character_1">
	<g>
		<g>
			
				<polygon id="XMLID_12_" style="fill:#FFFFFF;stroke:#263238;stroke-width:0.75;stroke-linecap:round;stroke-linejoin:round;stroke-miterlimit:10;" points="
				394.806,250.591 384.338,236.043 381.854,237.107 388.773,253.784 			"/>
			
				<path style="fill:#FFFFFF;stroke:#263238;stroke-width:0.75;stroke-linecap:round;stroke-linejoin:round;stroke-miterlimit:10;" d="
				M374.978,232.83l2.41,1.452l0.662-0.931l-3.104-5.111c-0.422-1.371,0.676-0.42,0.676-0.42l2.428,3.353l-2.257-6.031
				c0.452-1.269,1.273-0.336,1.273-0.336l2.501,5.119l-0.576-5.506c0.397-1.133,1.021-0.027,1.021-0.027s1.617,5.897,1.617,5.897
				c0.08-1.055,0.223-1.802,0.367-2.85c0.087-0.636-0.117-0.878,0.432-0.959c1.003-0.148,0.766,1.25,0.805,1.89
				c0.076,1.235,0.152,2.47,0.229,3.705l0.874,4.412l-2.535,1.137l-3.896-1.269l-3.404-2.581
				C374.023,232.537,374.978,232.83,374.978,232.83z"/>
		</g>
		<g>
			
				<path id="XMLID_11_" style="fill:#FFFFFF;stroke:#263238;stroke-width:0.75;stroke-linecap:round;stroke-linejoin:round;stroke-miterlimit:10;" d="
				M393.564,250.946c0,0-3.016,0.177-4.258,1.242c-1.242,1.064-1.952,1.952-3.016,1.774c-1.064-0.177-1.597,0.177-1.774,1.242
				c-0.177,1.064,0.355,1.774,0.355,2.306c0,0.532-1.064,4.258-1.064,5.855c0,1.597,0.532,1.952,1.952,2.661
				c1.419,0.71,3.193,0.887,3.193,0.887s0.355,3.548,0.177,5.145c-0.177,1.597-0.887,2.484-0.887,2.484s3.016,0.355,5.677,0.355
				c2.661,0,3.903-0.355,3.903-0.355s-4.613-4.79-4.613-10.645c0-5.855,1.242-9.581,1.952-10.822
				C395.87,251.833,395.515,251.478,393.564,250.946z"/>
			<g>
				<path style="fill:#263238;" d="M385.938,261.66c-0.012,0-0.024-0.001-0.038-0.002c-1.441-0.193-2.034-1.155-2.058-1.195
					c-0.08-0.135-0.037-0.309,0.098-0.39c0.135-0.078,0.308-0.037,0.389,0.096l0,0c0.019,0.031,0.487,0.771,1.647,0.925
					c0.155,0.021,0.264,0.164,0.244,0.32C386.201,261.556,386.079,261.66,385.938,261.66z"/>
			</g>
			<g>
				<path style="fill:#263238;" d="M387.791,255.537c-0.143,0-0.283-0.072-0.363-0.203c-0.123-0.2-0.061-0.463,0.14-0.586
					l1.147-0.706c0.202-0.123,0.464-0.061,0.586,0.14c0.123,0.2,0.061,0.463-0.14,0.586l-1.147,0.706
					C387.944,255.518,387.868,255.537,387.791,255.537z"/>
			</g>
		</g>
		<g>
			
				<path style="fill:#FFFFFF;stroke:#263238;stroke-width:0.75;stroke-linecap:round;stroke-linejoin:round;stroke-miterlimit:10;" d="
				M380.62,352.315c0,0,0.351,8.2,1.173,13.13c0.822,4.93,8.192,38.287,8.192,40.341s-7.058,7.594-7.058,7.594
				s-2.017,2.501,0.484,1.855c1.989-0.513,10.487-2.743,13.558-5.341c1.331-1.126-1.643-5.752-1.643-5.752
				s-2.029-31.302-3.262-36.233c-1.233-4.93-2.465-8.217-2.465-8.217l4.109-8.628L380.62,352.315z"/>
			<path style="opacity:0.5;fill:#C6FF00;" d="M392.064,367.91c-1.233-4.93-2.465-8.217-2.465-8.217l4.109-8.628l-13.088,1.25
				c0,0,0.131,3.05,0.419,6.545c0.813,0.34,2.1,0.846,3.143,1.107c1.658,0.415,3.109,0.415,3.109,0.415s1.866,4.353,2.28,10.158
				c0.415,5.804,4.353,34.826,4.353,34.826l0.657,6.024c0.946-0.477,1.776-0.978,2.387-1.495c1.331-1.126-1.643-5.752-1.643-5.752
				S393.297,372.841,392.064,367.91z"/>
			<path style="fill:#263238;" d="M395.538,404.488c-2.061,0.363-3.746,1.578-3.746,1.578l-1.807-0.279
				c0,2.054-7.058,7.594-7.058,7.594s-2.017,2.501,0.484,1.855c1.989-0.513,10.487-2.743,13.558-5.341
				C398.083,408.954,396.188,405.572,395.538,404.488z"/>
			
				<path style="fill:#FFFFFF;stroke:#263238;stroke-width:0.75;stroke-linecap:round;stroke-linejoin:round;stroke-miterlimit:10;" d="
				M383.411,415.237c1.989-0.513,10.487-2.743,13.558-5.341c0.332-0.28,0.393-0.78,0.303-1.368l-14.964,5.836
				C382.028,414.98,382.019,415.596,383.411,415.237z"/>
		</g>
		<g>
			<g>
				<defs>
					<path id="XMLID_10_" d="M407.44,346.536l-5.855,10.113c0,0,3.194,3.903,4.968,9.048c1.375,3.987,7.187,26.476,10.744,36.786
						c0.622,1.803,1.336,2.963,1.805,3.601c0.529,0.719,0.882,1.566,0.882,2.459c0,0.948-0.369,1.95-1.844,2.16
						c-2.115,0.302-13.932,1.348-14.544,0.843c-0.384-0.316,5.522-2.799,8.01-4.426c1.482-0.969,2.058-1.931,2.058-1.931
						s-16.869-36.476-18.643-40.912c-1.774-4.435-1.952-7.452-1.952-11.177c0-3.726,0.887-9.758,0.887-9.758L407.44,346.536z"/>
				</defs>
				<use xlink:href="#XMLID_10_"  style="overflow:visible;fill:#FFFFFF;"/>
				<clipPath id="XMLID_00000093894966177140620970000007700764114076580012_">
					<use xlink:href="#XMLID_10_"  style="overflow:visible;"/>
				</clipPath>
				<path style="opacity:0.5;clip-path:url(#XMLID_00000093894966177140620970000007700764114076580012_);fill:#C6FF00;" d="
					M417.297,402.483c-3.557-10.309-9.369-32.798-10.744-36.786c-1.774-5.145-4.968-9.048-4.968-9.048l5.855-10.113l-11.217-2.657
					c-0.941,0.286-1.773,0.536-2.44,0.729c-0.258,1.967-0.714,5.818-0.714,8.492c0,1.306,0.026,2.526,0.131,3.749
					c0.958,0.412,2.142,0.851,3.213,1.045c2.28,0.415,2.902,0.415,2.902,0.415s1.244,2.073,2.28,6.219
					c1.036,4.146,13.889,39.386,14.303,40.423c0.414,1.036,2.073,1.244,0,4.975c-0.207,0.372-0.41,0.732-0.611,1.085
					c1.307-0.124,2.352-0.237,2.852-0.309c1.476-0.211,1.845-1.212,1.845-2.16c0-0.893-0.353-1.74-0.882-2.459
					C418.632,405.446,417.918,404.285,417.297,402.483z"/>
				
					<use xlink:href="#XMLID_10_"  style="overflow:visible;fill:none;stroke:#263238;stroke-width:0.75;stroke-linecap:round;stroke-linejoin:round;stroke-miterlimit:10;"/>
			</g>
			<path style="fill:#263238;" d="M419.984,408.543c0-0.893-0.353-1.74-0.882-2.459c-0.04-0.054-0.09-0.134-0.133-0.196
				c-1.583,1.402-4.202,1.232-4.202,1.232s0,0,0-1.475c0-1.476-1.103-0.455-1.103-0.455s-0.576,0.962-2.058,1.931
				c-2.488,1.627-8.394,4.11-8.01,4.427c0.612,0.505,12.429-0.541,14.544-0.843C419.615,410.492,419.984,409.491,419.984,408.543z"
				/>
			
				<path style="fill:#FFFFFF;stroke:#263238;stroke-width:0.75;stroke-linecap:round;stroke-linejoin:round;stroke-miterlimit:10;" d="
				M419.947,409.002c-4.04,0.423-10.572,0.89-14.031,1.125c-1.44,0.721-2.49,1.28-2.321,1.419
				c0.612,0.505,12.429-0.541,14.544-0.843C419.377,410.526,419.831,409.793,419.947,409.002z"/>
		</g>
		<g>
			<g>
				<defs>
					<path id="XMLID_9_" d="M387.37,307.405c0,0-3.011,7.604-7.216,19.371c-4.205,11.767-0.327,29.571-0.327,29.571
						s3.105,1.933,11.498-0.393c8.393-2.326,15.439-4.752,15.439-4.752s5.426-13.126,5.737-21.489
						c0.311-8.363-5.288-18.632-5.288-18.632S395.796,296.999,387.37,307.405z"/>
				</defs>
				<use xlink:href="#XMLID_9_"  style="overflow:visible;fill:#FFFFFF;"/>
				<clipPath id="XMLID_00000149377384374165951530000017395629801114709670_">
					<use xlink:href="#XMLID_9_"  style="overflow:visible;"/>
				</clipPath>
				<path style="clip-path:url(#XMLID_00000149377384374165951530000017395629801114709670_);fill:#C6FF00;" d="M391.953,304.011
					l-2.588,10.351c0,0,6.012,11.401,6.633,14.096c0.622,2.695,1.866,2.902-2.073,7.877c-3.939,4.975-8.085,9.743-6.426,9.121
					c1.658-0.622,8.054-7.421,7.255-4.768c-0.798,2.653-5.597,5.597-7.255,8.499c-1.312,2.295-2.49,5.881-2.927,7.898
					c1.711-0.054,3.925-0.348,6.753-1.132c8.393-2.326,15.439-4.752,15.439-4.752s5.426-13.126,5.737-21.489
					c0.311-8.363-5.288-18.632-5.288-18.632S399.415,301.476,391.953,304.011z"/>
				
					<use xlink:href="#XMLID_9_"  style="overflow:visible;fill:none;stroke:#263238;stroke-width:0.75;stroke-linecap:round;stroke-linejoin:round;stroke-miterlimit:10;"/>
			</g>
			<path style="fill:none;stroke:#263238;stroke-width:0.5;stroke-linecap:round;stroke-linejoin:round;stroke-miterlimit:10;" d="
				M393.976,346.72c0,0,11.077-7.669,14.202-16.19"/>
			<path style="fill:none;stroke:#263238;stroke-width:0.5;stroke-linecap:round;stroke-linejoin:round;stroke-miterlimit:10;" d="
				M389.999,345.868c0,0,6.533-3.124,9.941-6.533"/>
			
				<line style="fill:none;stroke:#263238;stroke-width:0.5;stroke-linecap:round;stroke-linejoin:round;stroke-miterlimit:10;" x1="388.863" y1="346.436" x2="386.023" y2="347.004"/>
		</g>
		<g>
			
				<path style="fill:#FFFFFF;stroke:#263238;stroke-width:0.75;stroke-linecap:round;stroke-linejoin:round;stroke-miterlimit:10;" d="
				M386.09,273.418c0,0,3.927-2.618,9.948-1.047c6.021,1.571,3.271,3.796,0.719,4.123
				C394.205,276.821,386.09,273.418,386.09,273.418z"/>
			<g>
				<defs>
					<path id="XMLID_8_" d="M395.87,274.01c0,0-4.79-0.887-8.339-0.887c-3.548,0-10.113,0.355-13.484-1.242
						c-3.371-1.597-7.853-5.762-7.853-5.762l-7.578-22.584l-3.344,0.239c0,0,3.208,18.974,3.208,22.345
						c0,3.371,1.242,5.5,2.839,7.629c1.597,2.129,12.727,8.423,16.808,10.552l1.774,0.887c0,0-3.194,4.79-2.661,6.919
						c0.532,2.129,4.79,4.79,5.677,6.387c0.887,1.597,3.959,10.272,3.959,10.272s2.606-4.417,6.864-13.998
						C397.999,285.187,401.37,278.091,395.87,274.01z"/>
				</defs>
				<use xlink:href="#XMLID_8_"  style="overflow:visible;fill:#FFFFFF;"/>
				<clipPath id="XMLID_00000139255697216698947610000005963899571997466036_">
					<use xlink:href="#XMLID_8_"  style="overflow:visible;"/>
				</clipPath>
				<path style="opacity:0.5;clip-path:url(#XMLID_00000139255697216698947610000005963899571997466036_);fill:#C6FF00;" d="
					M393.741,294.767c4.258-9.58,7.629-16.677,2.129-20.758c0,0-4.79-0.887-8.339-0.887c-0.706,0-1.534,0.014-2.43,0.024
					c1.256,0.655,4.43,2.645,4.264,5.975c-0.207,4.146-3.939,2.488-10.158,2.28c-6.219-0.207-4.353,0.207-2.073,2.28
					c0.09,0.082,0.201,0.169,0.306,0.254c0.242,0.129,0.48,0.255,0.688,0.364l1.774,0.887c0,0-0.073,0.11-0.185,0.288
					c3.062,1.851,7.214,3.917,7.367,4.84c0.207,1.244-2.902,2.488-2.073,5.183c0.506,1.643,1.323,6.29,2.728,10.185
					C389.128,303.745,391.285,300.294,393.741,294.767z"/>
				
					<use xlink:href="#XMLID_8_"  style="overflow:visible;fill:none;stroke:#263238;stroke-width:0.75;stroke-linecap:round;stroke-linejoin:round;stroke-miterlimit:10;"/>
			</g>
			
				<path style="fill:#FFFFFF;stroke:#263238;stroke-width:0.75;stroke-linecap:round;stroke-linejoin:round;stroke-miterlimit:10;" d="
				M360.726,234.8l-0.917,2.891l-1.199-0.282l-1.128-6.345c-0.635-1.41-0.846,0.141-0.846,0.141l0.423,4.442l-2.468-6.487
				c-1.269-0.705-1.269,0.635-1.269,0.635l1.622,5.922l-3.455-4.865c-1.128-0.635-0.846,0.705-0.846,0.705l2.891,5.922
				c-0.816-0.797-1.464-1.299-2.327-2.044c-0.524-0.453-0.53-0.794-1.032-0.469c-0.917,0.595,0.27,1.557,0.694,2.102
				c0.818,1.053,1.635,2.107,2.453,3.161l1.951,3.546l3.344-0.239l2.249-3.801l0.917-4.512
				C361.29,233.883,360.726,234.8,360.726,234.8z"/>
			
				<line style="fill:none;stroke:#263238;stroke-width:0.5;stroke-linecap:round;stroke-linejoin:round;stroke-miterlimit:10;" x1="379.903" y1="285.187" x2="384.887" y2="288.776"/>
			
				<line style="fill:none;stroke:#263238;stroke-width:0.5;stroke-linecap:round;stroke-linejoin:round;stroke-miterlimit:10;" x1="381.478" y1="286.787" x2="383.75" y2="291.048"/>
		</g>
		<g>
			<path id="XMLID_1_" style="fill:#263238;" d="M396.757,276.494c0,0-5.5-4.968-7.806-11.177
				c-2.306-6.21,0.156-13.505,3.173-16.344c3.016-2.839,13.327,0.909,15.988,8.006c2.661,7.097-1.774,14.016-3.193,15.613
				c-1.419,1.597-5.855,3.903-5.855,3.903s7.097,6.209,11.177,16.145c4.081,9.935,3.016,15.967,0.532,22.709
				c-2.484,6.742-12.242,14.548-12.242,14.548s-10.113-12.242-12.419-22.177C383.806,297.784,393.386,280.397,396.757,276.494z"/>
			<path style="fill:none;stroke:#FFFFFF;stroke-width:0.5;stroke-linecap:round;stroke-linejoin:round;stroke-miterlimit:10;" d="
				M397.1,268.893c-8.805-4.545-6.533-15.906-6.533-15.906s3.977,9.657,9.089,10.225"/>
			<path style="fill:none;stroke:#FFFFFF;stroke-width:0.5;stroke-linecap:round;stroke-linejoin:round;stroke-miterlimit:10;" d="
				M396.532,280.254c0,0-2.272,9.089-3.693,20.735c-1.42,11.646,3.43,25.717,5.692,28.907"/>
			<path style="fill:none;stroke:#FFFFFF;stroke-width:0.5;stroke-linecap:round;stroke-linejoin:round;stroke-miterlimit:10;" d="
				M397.952,278.834c0,0,4.829,15.622,3.408,26.132c-1.42,10.509-2.84,15.906-2.84,15.906"/>
			<path style="fill:none;stroke:#FFFFFF;stroke-width:0.5;stroke-linecap:round;stroke-linejoin:round;stroke-miterlimit:10;" d="
				M399.373,279.97c0,0,9.941,16.474,8.521,29.256c-1.42,12.782-5.113,16.19-5.113,16.19"/>
		</g>
	</g>
</g>
</svg>
